<svg width="1072" height="901" viewBox="0 0 1072 901" fill="none" xmlns="http://www.w3.org/2000/svg">
<path d="M1069.97 401.976C1069.17 401.589 1068.39 401.149 1067.59 400.736C1067.24 399.949 1066.87 399.962 1066.44 400.669C1065.72 400.696 1065 400.722 1064.29 400.749C1063.92 399.736 1063.37 398.709 1064.52 397.802C1065.23 397.242 1065.96 396.696 1066.6 396.069C1068.27 394.402 1067.83 391.762 1065.73 390.789C1064.92 390.402 1064.09 390.082 1063.27 389.722C1064.12 388.856 1065.01 388.016 1065.83 387.109C1066.64 386.202 1066.56 385.069 1066.08 384.082C1065.6 383.136 1064.68 383.176 1063.73 383.482C1062.89 383.762 1062.01 383.922 1061.16 384.136C1060.71 382.589 1060.27 381.029 1059.8 379.482C1059.64 378.949 1059.48 378.429 1059.31 377.909C1059.24 377.429 1059.09 376.936 1058.85 376.469C1057.57 373.736 1058.13 371.176 1059.64 368.736C1060.69 367.029 1061.83 365.402 1063.87 364.656C1065.35 364.109 1065.65 362.789 1064.15 361.789C1063.28 361.216 1061.8 361.042 1061.47 360.282C1060.81 358.856 1062.6 358.269 1063.25 357.256C1063.45 356.949 1063.56 356.602 1063.8 356.122C1062.68 354.816 1061.47 353.482 1060.37 352.056C1059.68 351.149 1059.95 349.576 1061.01 349.322C1063.75 348.669 1063.61 346.629 1063.59 344.642C1063.56 343.016 1062.88 341.282 1063.27 339.789C1063.83 337.642 1064.6 335.749 1063.41 333.509C1063.09 332.909 1064.11 331.629 1064.41 330.629C1064.6 330.002 1064.93 329.069 1064.65 328.696C1062.52 325.962 1063.12 322.469 1061.97 319.482C1061.96 319.096 1061.96 318.709 1061.95 318.336C1061.43 317.696 1061.59 316.776 1061.05 316.136C1060.8 315.602 1060.55 315.056 1060.29 314.522C1060.21 314.269 1060.13 314.029 1059.96 313.829C1060.87 311.362 1061.08 308.896 1059.97 306.429C1061.61 303.789 1061.55 301.176 1059.92 298.562C1059.4 294.669 1058.88 290.776 1058.32 286.882C1058.24 286.376 1057.91 285.896 1057.69 285.402C1057.68 283.962 1057.89 282.469 1057.61 281.082C1057.33 279.722 1056.92 277.936 1055.93 277.256C1052.63 274.989 1050.76 271.442 1047.84 268.882C1046.72 265.256 1046.2 264.882 1043.32 265.722C1042.12 264.176 1041.04 262.576 1039.11 261.682C1037.85 261.109 1036.89 259.922 1035.8 259.016C1035.41 258.656 1034.93 258.402 1034.65 257.936C1034.67 257.922 1034.65 257.909 1034.67 257.909C1032.01 253.949 1028.13 251.416 1024.27 248.656C1023.71 250.362 1024.88 251.296 1025.21 252.469C1025.6 253.869 1025.23 254.669 1023.69 254.562C1021.32 254.389 1019.53 255.309 1017.81 256.749C1016.72 257.669 1015.56 258.536 1014.32 259.256C1012.68 260.189 1010.95 260.762 1009.33 259.122C1007.87 257.136 1006.09 256.576 1003.89 257.936C1001.93 256.549 999.787 255.762 997.347 255.816C996.08 255.842 995.32 256.376 995.133 257.669C995.053 258.176 994.893 258.669 994.613 259.762C993.827 258.469 993.36 257.536 992.733 256.736C991.72 255.456 990.6 255.602 989.547 256.749C983.64 257.149 977.733 257.429 971.853 258.042C969.573 258.269 967.24 258.976 965.2 260.002C963.693 260.749 962.253 261.176 960.627 261.362C959.987 261.442 959.387 261.962 958.773 262.282H958.76C956.08 262.256 953.293 262.909 950.947 260.842C950.56 260.509 949.52 260.616 948.92 260.856C945.68 262.096 944.893 263.709 946.76 266.669C947.053 267.109 947.493 267.456 947.867 267.842C948.96 268.762 949.933 269.909 951.173 270.549C953.707 271.842 955.653 273.496 956.707 276.256C957.653 278.736 959.467 280.482 962.173 281.189C964.28 281.749 966.333 282.482 968.44 283.082C969.827 283.482 971.36 283.536 972.613 284.162C974.267 284.976 975.76 284.762 977.347 284.242C978.893 283.736 980.4 282.909 981.973 282.816C985.493 282.576 988.72 281.549 991.8 279.922C993.947 280.202 996.08 280.562 998.24 280.696C998.813 280.722 999.4 280.469 999.987 280.216C1000.2 280.149 1000.43 280.069 1000.68 279.962C1002.89 279.962 1005.16 279.616 1007.13 281.042C1009.59 283.362 1012.76 283.776 1015.85 284.376V284.389C1017.23 286.042 1018.57 287.736 1019.99 289.376C1021.03 290.576 1022.01 292.096 1024 290.762C1024.11 290.682 1024.84 291.229 1025.01 291.616C1025.28 292.242 1025.64 293.096 1025.41 293.642C1024.63 295.602 1025.41 296.709 1027.07 297.589C1028.19 298.176 1029.21 298.922 1030.27 299.602C1031.84 302.189 1034.71 303.216 1036.89 305.082C1037.55 306.282 1038.21 307.469 1038.87 308.669C1038.93 309.336 1039.01 310.002 1039.08 310.656C1038.03 312.296 1037.76 314.002 1038.39 315.896C1038.72 316.909 1039.28 318.256 1038.91 319.029C1037.72 321.402 1038.91 323.229 1039.63 325.282C1039.96 326.229 1040.19 327.802 1039.68 328.336C1038.29 329.802 1038.04 330.976 1039.35 332.562C1040.08 333.456 1040.05 334.522 1039.73 335.682C1039.47 336.682 1039.29 337.802 1039.44 338.829C1039.61 340.082 1039.15 340.936 1038.32 341.722C1037.8 342.229 1037.23 342.696 1036.76 343.256C1035.72 344.496 1035.73 345.669 1037.23 346.402C1039.61 347.562 1040.24 349.389 1040.12 351.762C1040.08 352.669 1040.07 353.589 1040.04 354.496C1039.33 355.256 1038.63 356.002 1037.92 356.749C1037.57 356.749 1037.21 356.776 1036.87 356.856C1035.72 357.002 1034.48 357.376 1035.57 358.736C1036.55 359.962 1036.97 361.202 1036.8 362.642C1036.48 365.442 1036.04 368.216 1035.65 371.016H1035.67C1034.23 371.669 1033.44 372.749 1033.55 374.376C1033.49 374.682 1033.45 375.002 1033.45 375.322C1030.53 375.162 1028.41 376.149 1027.29 379.109C1026.76 380.549 1025.6 381.749 1024.73 383.056C1021.73 383.776 1018.75 384.549 1015.73 385.202C1012.55 385.882 1009.31 384.816 1006.11 385.402C1003.53 384.762 1001.64 387.749 998.987 386.762C997.587 388.029 995.24 388.389 995.08 390.842C994.707 391.562 994.347 392.282 993.973 392.989C992.493 393.029 991.173 393.296 989.96 394.336C988.333 395.722 986.613 397.696 984.733 397.936C982.56 398.216 980.453 399.562 978.013 398.749C977.013 398.416 975.56 399.082 974.44 399.576C972.76 400.336 971.093 400.749 969.24 400.816C966.867 400.896 966.387 401.336 966.733 403.856C966.96 405.549 966.413 406.096 965.08 406.549C964.773 406.642 964.56 407.029 964.307 407.282C964.347 407.322 964.373 407.349 964.4 407.389C964.387 407.389 964.373 407.389 964.36 407.389L964.307 407.282C963.96 407.296 963.613 407.309 963.267 407.296C961.053 405.882 960.653 405.989 958.853 408.416C957.707 409.016 957.387 411.216 955.347 410.082C954.347 409.536 953.68 410.216 953.147 411.056C952.013 412.882 950.48 413.936 948.2 413.922C946.44 413.922 944.04 413.149 943.12 414.749C942.387 416.042 943.107 418.162 943.187 419.922C943.187 420.096 943.28 420.269 943.333 420.456C942.8 420.522 942.227 420.509 941.72 420.682C939.627 421.416 937.587 422.056 935.707 420.149C935.507 419.949 934.987 420.109 934.68 419.976C932.84 419.202 931.173 418.602 929.36 420.322C928.4 421.242 926.08 421.216 925.667 422.162C924.56 424.762 922.68 424.962 920.427 424.842C917.573 422.016 913.96 421.776 910.787 423.362C908.16 424.682 905.707 425.096 902.947 424.936C901.707 424.869 900.333 424.589 899.507 425.976C898.56 426.549 897.64 427.042 896.44 426.656C892.653 425.442 888.96 425.429 885.427 427.629C884.706 428.082 883.693 428.322 882.827 428.269C879.667 428.096 877.133 428.896 875.44 431.829C874.867 432.842 873.013 432.616 872.8 431.509C872.293 428.802 870.413 427.616 868.213 426.629C868.053 426.562 867.88 426.456 867.76 426.322C865.267 423.322 862.493 423.736 859.573 425.629C858.68 426.202 857.693 426.629 856.76 427.122C854.8 427.976 852.52 428.442 850.987 429.776C849.453 431.096 848.707 433.309 847.52 435.069C847.027 435.789 846.267 436.309 845.627 436.922C842.16 437.322 839.64 439.562 836.907 441.362C835.627 441.456 834.333 441.429 833.093 441.656C831 442.056 829.107 443.122 828.72 445.282C828.12 448.789 825.693 449.802 822.813 450.882C819.547 452.096 816.773 451.296 813.947 449.829C812.533 449.176 811.107 448.509 809.693 447.842C808.693 447.482 807.72 446.869 806.72 446.829C803.64 446.696 800.547 446.789 797.467 446.789C797.227 445.122 796.507 443.816 795.026 442.842C793.4 441.776 791.853 440.549 790.413 439.242C789.987 438.856 790.013 437.949 789.84 437.282C791.92 437.136 794.027 437.149 796.053 436.762C797.227 436.536 797.04 435.589 796.187 434.882L796.173 434.842C795.907 434.429 795.573 434.082 795.16 433.802L795.093 433.749C794.827 433.322 794.48 433.002 794.04 432.762L793.96 432.682C792.213 430.936 790.44 431.296 788.653 432.616L788.627 432.629C787.2 432.522 785.76 432.416 784.333 432.322C783.853 432.122 783.307 431.669 782.907 431.776C782.04 431.989 781.24 432.456 780.44 432.869C779.013 433.616 778.466 432.709 778.026 431.616C777.893 431.269 777.827 430.909 777.733 430.562C778.48 429.442 778.36 428.349 777.053 427.976C774.48 427.229 771.853 426.642 769.227 426.136C766.947 425.696 764.64 425.416 762.333 425.136C760.907 424.962 759.48 424.922 758.04 424.816C756.893 423.096 754.813 422.709 753.32 421.562C751.267 419.976 750.053 420.176 748.76 422.269C748.573 422.562 747.773 422.482 747.267 422.576C745.387 419.482 745.373 419.562 742.24 420.416C740.507 420.882 738.68 421.349 736.92 421.296C735.507 421.242 734.56 421.536 733.533 422.442C731.427 424.322 729.013 425.469 726.067 424.802C725.76 424.469 725.453 424.122 725.147 423.776C724.693 421.056 724.84 418.469 726.573 416.136C726.973 415.602 727.053 414.829 727.28 414.162C727.28 414.149 727.28 414.149 727.28 414.149C727.92 413.336 728.573 412.522 729.213 411.709C729.667 410.429 729.68 409.229 728.533 408.269C728 407.642 727.573 406.762 726.893 406.416C725.653 405.802 724.253 405.496 722.933 405.069C722.653 404.669 722.387 404.269 722.107 403.882C721.987 403.562 721.853 403.269 721.56 403.069L721.493 403.002C720.427 402.256 719.373 401.522 718.307 400.776L718.28 400.749C717.947 400.362 717.547 400.029 717.28 399.576C717.293 399.576 717.307 399.576 717.307 399.576C717.04 399.042 716.773 398.509 716.507 397.962C716.44 397.749 716.333 397.536 716.187 397.322C715.84 394.736 716.467 392.309 717.347 389.922C717.347 389.909 717.347 389.896 717.347 389.882C718.173 389.549 719.04 389.269 719.827 388.856C721.32 388.069 721.307 388.029 719.653 386.176C718.88 384.576 718.253 382.936 718.667 381.109C719.747 380.976 720.84 380.896 721.907 380.709C725.64 380.056 729.253 379.936 732.72 381.989C734.8 383.229 734.893 383.082 734.68 386.176C733.893 386.602 732.773 386.842 732.44 387.496C732.12 388.122 732.36 389.349 732.8 390.002C735.333 393.722 737.04 394.749 740.88 393.402C741.227 393.282 741.6 393.216 741.92 393.069C743.987 392.082 745.8 391.776 747.987 393.309C749.773 394.576 752.32 394.709 754.013 392.909C755.893 390.922 757.813 391.256 759.933 391.989C760.387 392.296 760.813 392.642 761.093 393.122H761.08C761.093 393.122 761.093 393.136 761.107 393.136C761.293 393.256 761.493 393.349 761.68 393.429C762.293 393.749 762.906 394.122 763.493 394.082C766.013 393.949 768.4 393.669 770.893 394.869C772.707 395.736 776.533 393.896 777.267 392.016C777.933 390.322 778.72 389.909 780.493 390.056C782.8 390.242 785.147 389.936 787.48 389.829C787.96 390.056 788.4 390.416 788.893 390.469C792.187 390.869 792.24 390.882 792.773 393.682C792.867 394.216 792.827 394.776 792.933 395.296C793.373 397.336 793.667 397.482 796.293 397.776C797.52 397.909 798.853 398.096 799.907 398.682C802.573 400.202 805 399.856 807.627 398.536C809.013 397.829 810.68 397.469 812.253 397.362C814.787 397.216 816.787 396.322 818.32 394.322C818.653 394.202 819.133 394.176 819.307 393.936C821.44 391.082 823.613 388.256 821.72 384.336C821.44 383.762 821.68 382.922 821.68 382.216C822.347 381.282 823.12 380.389 823.68 379.389C824.16 378.509 824.413 377.496 824.76 376.536C826.133 375.589 826.08 374.136 826.12 372.736C826.173 371.149 826.133 369.562 826.147 367.976C827.813 366.482 829.867 366.856 831.84 366.802C834.72 366.736 835.027 366.416 835.707 363.402C836.28 360.922 836.28 360.922 838.693 360.482C840.76 360.109 841.267 359.642 841.32 357.829C841.36 356.016 841.293 354.202 841.267 352.376C841.667 352.042 842.053 351.696 842.453 351.349C843.493 351.576 844.547 351.829 845.587 352.029C846.76 352.256 847.88 351.962 848.413 350.922C849.907 347.936 852.16 345.442 852.587 341.736C852.987 338.349 853.2 334.949 853.587 331.576C854.507 330.042 855.427 328.509 856.347 326.976C857.84 324.496 858.253 321.962 856.827 319.322C856.84 318.709 856.853 318.096 856.867 317.482C857.16 316.669 857.44 315.842 857.72 315.029C857.907 314.776 857.987 314.496 857.96 314.176C858.307 313.389 858.64 312.602 858.973 311.816C859.387 311.229 859.68 310.322 860.227 310.136C864.067 308.789 866.28 305.269 869.68 303.309C871.307 302.362 873.013 301.162 873.347 298.962V298.949C874.413 298.496 875.48 298.069 876.533 297.576C877.267 297.229 877.973 296.816 878.693 296.429C881.586 296.429 884.48 296.429 887.373 296.429C888.667 297.789 890.373 297.442 891.96 297.536C894.547 297.709 896.853 297.456 898.933 295.416C900.12 294.242 902.133 293.922 903.76 293.176C904.533 292.816 905.28 292.362 906.026 291.949L906.107 291.882C906.48 291.629 906.787 291.322 907.04 290.936C907.267 290.709 907.4 290.442 907.44 290.109C909.053 287.976 911.787 287.856 913.867 286.549C913.867 286.549 913.867 286.549 913.88 286.549L913.893 286.576C915.427 286.536 917.027 286.802 918.173 285.389C921.027 284.162 922.346 281.482 924.026 279.162C924.427 278.616 924.64 277.776 924.6 277.096C924.307 272.509 925.507 268.096 925.973 263.589C927.053 262.696 927.08 261.442 927.107 260.202C928.253 259.309 928.053 258.042 928.053 256.829C928.227 256.562 928.293 256.282 928.267 255.976C929.72 254.056 929.52 251.829 929.2 249.696C928.92 247.856 928.067 246.216 926.026 245.656C922.853 242.762 920.84 239.202 919.387 235.176C918.227 231.949 916.52 228.936 915.053 225.829C913.64 223.682 912.213 221.522 910.8 219.376C910.76 219.016 910.627 218.682 910.413 218.389C910.867 215.482 911.32 212.589 911.773 209.682C912.64 209.296 912.667 208.869 911.827 208.402C911.627 207.336 911.8 205.949 911.187 205.256C908.933 202.736 908.333 198.896 904.8 197.362C904.093 197.056 903.747 195.949 903.16 195.269C902.453 194.456 901.68 193.722 900.933 192.949C900.507 192.402 899.947 191.909 899.693 191.296C898.933 189.442 897.613 188.629 895.64 188.776C895.133 188.802 894.627 188.709 894.12 188.669C893.853 187.642 893.587 186.602 893.32 185.576C892.96 184.229 892.933 182.602 892.133 181.616C890.973 180.162 889.573 181.882 888.24 182.016C887.347 182.109 886.453 182.069 885.573 182.162C883.707 182.362 883.52 182.602 883.213 184.976C883.147 185.509 883.16 186.042 883.133 186.589C881.493 187.602 879.92 188.669 877.827 188.602C875.547 188.536 873.267 188.682 871 188.736C868.04 187.162 867.96 187.096 866.52 189.389C866.053 190.136 865.64 190.282 864.867 190.216C862.747 190.016 860.627 189.829 858.507 189.789C857.773 189.776 857.24 190.362 857.6 191.269C857.973 192.229 858.373 193.189 858.76 194.162C858.107 194.469 857.44 194.762 856.787 195.069C856.653 195.109 856.547 195.162 856.427 195.229C853.6 196.802 850.68 197.816 847.333 197.749C845.76 197.722 844.187 198.282 842.56 197.789C842.24 197.682 841.72 198.256 841.293 198.522C839.08 198.456 837.013 198.789 835.533 200.682C835.253 200.602 834.987 200.642 834.747 200.802C834.013 200.842 833.293 200.869 832.56 200.909C832.867 201.056 833.173 201.202 833.493 201.336C833.453 201.336 833.427 201.322 833.4 201.309C833.067 201.296 832.786 201.162 832.56 200.909C832.187 200.922 831.813 200.936 831.44 200.936C830.427 201.176 829.427 201.416 828.427 201.656C828.253 201.682 828.08 201.709 827.907 201.776C825.4 201.749 822.773 202.189 820.427 201.576C818.52 201.069 817.08 201.189 815.387 201.922C814.613 202.256 813.613 202.056 812.72 202.109C812.053 201.042 810.987 201.002 809.893 200.909C807.76 200.722 805.627 200.469 803.493 200.202C802.667 200.096 796.347 200.536 795.373 200.802C794.867 200.936 794.307 200.869 793.787 200.989C790.96 201.656 788.173 200.789 785.36 200.802C785.227 200.669 785.12 200.456 784.973 200.429C782.2 199.842 779.373 199.656 776.64 198.856C776.2 198.736 775.627 199.136 775.107 199.282C774.72 198.402 774.84 197.616 775.613 196.989C776.293 196.442 776.973 195.922 777.653 195.402C779.013 194.976 780.347 194.349 781.747 194.189C783.253 194.029 784.32 193.429 784.227 191.962C784.093 189.496 785.667 188.456 787.4 187.416C787.4 187.402 787.4 187.402 787.4 187.402C789.907 184.829 791.413 182.042 789.787 178.309C789.16 176.842 789.08 175.136 788.587 173.602C787.24 169.349 784.627 166.042 780.853 163.642C779.027 162.536 777.213 161.429 775.387 160.322C774.96 159.896 774.547 159.469 774.12 159.056C774.12 159.056 774.12 159.056 774.12 159.042C774.213 157.122 774.853 155.722 776.773 154.722C779.787 153.136 782.587 151.162 785.48 149.349C786.307 149.096 787.653 149.082 787.88 148.562C789.133 145.709 791.04 145.696 793.52 146.722C794.56 147.162 795.627 146.909 796.267 145.789C797.067 145.536 797.88 145.282 798.68 145.029C800.893 145.562 802.987 145.816 804.013 143.042C804.187 142.589 804.787 142.296 805.187 141.936C806.533 140.709 807.373 140.602 808.2 142.176C809.413 144.509 811.267 145.042 813.587 144.936C816.227 146.896 819.28 147.522 822.427 148.282C824.533 148.802 827.187 146.989 828.84 149.589C828.973 149.816 829.56 150.002 829.787 149.896C832.067 148.789 834.813 149.776 836.987 148.229L837.52 148.256L838.04 148.096C839.787 147.842 841.147 148.602 842.453 149.669C843.56 150.589 844.733 150.456 845.933 149.682C847.467 148.682 848.56 147.616 849.24 145.709C850 143.589 850.507 141.416 851.187 139.296C851.667 138.616 852.146 137.936 852.627 137.256C853.253 137.176 853.88 137.096 854.507 137.016C856.387 136.989 858.427 137.909 859.947 135.989L859.973 135.962C860.12 135.869 860.36 135.816 860.413 135.682C861.72 132.296 863.907 131.016 867.453 132.469C868.027 132.709 868.96 132.656 869.493 132.336C871.28 131.269 873.44 130.562 874.267 128.322C873.733 128.269 873.307 128.162 873.013 127.789C873.413 127.922 873.827 128.096 874.267 128.322C874.907 126.922 875.747 126.042 877.373 127.149C877.627 127.322 878.013 127.336 878.333 127.416C879.307 128.176 880.2 129.122 881.28 129.669C883.733 130.936 885.987 132.269 887.107 135.016C887.693 136.442 889.133 136.976 890.627 137.189C892.227 139.616 894.88 140.602 897.373 141.256C899.853 141.909 902.68 142.282 905.107 140.496C907.333 140.256 909.747 141.149 911.72 139.376C912.867 139.936 914.013 140.376 915.253 139.642C917.307 138.442 919.547 138.082 921.893 138.042C922.493 138.029 923.093 137.429 923.68 137.096H923.693C927.893 136.362 928.093 136.149 928.067 132.456C928.067 131.722 927.933 130.989 927.96 130.256C928.053 127.096 929.627 125.629 932.76 125.762C934.4 125.829 936.04 126.029 937.667 125.936C940.453 125.789 943.093 124.869 945.36 123.309C947.093 122.096 947.2 119.842 947.893 117.989C947.96 117.816 947.96 117.629 947.987 117.442C947.973 117.429 947.947 117.429 947.933 117.416C948.227 116.922 948.653 116.576 949.16 116.309C949.507 116.189 949.96 116.162 950.173 115.936C951.853 114.082 953.773 113.682 956.026 114.842C956.826 115.269 957.68 115.869 958.507 115.882C964.013 115.976 969.347 115.296 973.84 111.696C975.867 110.056 977.4 108.056 977.4 105.242C976.747 105.322 976.107 105.376 975.453 105.429C976.04 105.282 976.693 105.229 977.4 105.242C977.373 104.896 977.347 104.536 977.32 104.189C977.307 104.189 977.307 104.189 977.307 104.189C976.107 101.496 974.187 99.3224 972.213 97.1757C970.24 95.0557 967.653 94.2291 964.987 93.549C963.12 93.069 962.173 95.0291 960.587 95.4157C959.907 95.5757 959.293 96.0291 958.64 96.3491C956.947 96.3624 955.24 96.3757 953.533 96.3891C952.773 96.0291 952.027 95.4291 951.24 95.3624C949.667 95.2291 948.627 94.5224 947.92 93.1757C947.933 93.1757 947.933 93.1757 947.933 93.1757C947.893 92.8024 947.867 92.4424 947.84 92.0691C947.76 92.0691 947.653 91.9624 947.56 91.7224C947.533 91.6558 947.52 91.5891 947.533 91.5091C947.627 91.709 947.733 91.8824 947.84 92.0691C947.933 91.7091 947.92 91.3624 947.813 91.0024C948.4 83.9491 945.6 78.7357 939.293 75.4557H939.28L939.24 75.5358C939.16 74.0824 939.093 72.6291 939.013 71.1757C939.173 70.9357 939.253 70.6557 939.24 70.3624C939.907 68.6957 940.427 66.949 941.267 65.3624C943.213 61.6691 942.88 58.2158 939.907 55.4024C938.533 54.1091 938.093 52.8157 937.947 51.1357C937.88 50.4691 937.387 49.8423 937.093 49.189C937.107 48.8157 937 48.4691 936.8 48.1625C936.427 46.8158 936.107 45.4423 935.653 44.1224C935.093 42.4824 935.04 40.6158 933.587 39.3624C932.867 37.9091 932.293 36.3624 931.413 35.0157C929.253 31.7357 927.48 28.0691 923.693 26.2025C920.28 22.4291 915.68 20.3491 911.56 17.5757C910.373 16.5358 909.293 15.2957 907.96 14.5091C904.44 12.4557 900.813 10.6157 897.227 8.68237C894.933 6.80237 891.933 6.54907 889.347 5.28235C885.147 3.2157 880.933 1.05579 876.173 0.202454C870.947 -0.744263 867.693 1.64246 867.64 7.09576C867.627 9.85577 867.64 12.5757 866.453 15.1357C862.787 17.3091 858.853 18.0157 854.667 17.2823C853.2 16.6157 851.76 15.8957 850.267 15.2823C845.347 13.269 840.28 13.7758 835.36 15.0024C833.173 15.5491 830.813 16.2824 829.107 18.1357C826.16 21.3224 822.573 23.9358 820.44 27.8691C819.933 28.7891 819.187 29.9224 818.293 30.2424C814.987 31.4291 813.827 34.2291 812.613 37.0691C811.56 38.1891 810.52 39.3091 809.467 40.4291C808.227 40.6558 806.987 40.9091 805.733 41.0958C804.84 41.2291 803.92 41.4557 803.04 41.3491C799.627 40.9357 796.187 40.5224 792.8 39.8824C791.053 39.5491 789.373 38.7624 787.667 38.1757C783.68 36.1224 780.733 33.1891 779.347 28.7625C778.987 27.6292 777.773 27.3624 776.6 27.8557C775.373 28.3624 774.32 29.0158 774.333 30.5624C772.733 32.4158 772.747 34.269 774.307 36.1224C774.333 37.749 773.947 39.5357 774.467 40.989C775.533 43.9757 774.907 46.6158 773.813 49.3624C773.413 50.3358 773.427 51.4824 773.253 52.5358C773.253 52.9091 773.253 53.269 773.253 53.6424C773.24 54.3624 773.24 55.0958 773.227 55.8291C773.227 56.2025 773.24 56.5624 773.24 56.9357C773.453 57.9091 774.053 58.8157 773.213 59.8691C772.36 60.9624 771.72 62.2291 770.987 63.4024C767.893 64.9891 765.573 67.8024 762.227 68.9891C761.293 69.3891 760.307 69.6824 759.44 70.2025C758.453 70.7891 757.587 71.5757 756.68 72.2691C753.947 72.1091 751.707 73.5491 749.707 74.9891C748.24 76.0691 747.653 78.3091 746.24 79.5358C744.787 80.7891 742.307 79.5224 740.707 81.2557C739.627 82.4291 738.24 83.3358 736.987 84.3757C735.2 86.9624 733.173 88.7624 729.773 86.9624C729.16 86.6424 728.347 86.6291 727.627 86.6024C726.24 86.5491 725.213 85.9891 724.48 84.7891C723.067 82.4557 720.853 81.9357 718.32 82.2025C717.733 81.7891 717.04 81.4691 716.573 80.9357C715.107 79.3091 713.293 78.7357 711.187 78.8424C710.267 78.8958 709.36 78.8691 708.453 78.8691C707.72 78.5358 706.973 78.2025 706.24 77.8691C703.32 76.3624 700.4 74.8691 697.467 73.3624C694.76 71.7757 691.64 71.8157 688.68 71.2025C687.547 70.1091 686.427 69.0157 685.307 67.9224C684.333 64.4557 683.44 60.9491 680.947 58.1625C680.76 57.9625 680.533 57.8691 680.267 57.8691C680.253 57.8691 680.253 57.8691 680.253 57.8691C679.467 56.3624 678.667 54.8557 677.88 53.3491C677.88 53.3491 677.88 53.3491 677.867 53.3491C677.88 53.0557 677.787 52.7891 677.613 52.5624C677.36 51.8291 677.107 51.0958 676.867 50.3624C676.84 50.2691 676.813 50.1624 676.76 50.0691C676.76 49.7358 676.613 49.4691 676.347 49.2691C675.68 48.1891 675.013 47.0957 674.347 46.0157L674.32 45.9757C674.053 45.5491 673.573 45.2823 673.347 44.8157C673.347 44.8024 673.347 44.7891 673.347 44.7758C672.587 43.709 671.827 42.6425 671.067 41.5624C670.747 41.1891 670.373 40.869 669.96 40.6157L669.853 40.5358C667.32 38.1224 664.293 36.4958 661.2 34.9625C660.64 34.2958 659.587 34.5757 659.04 33.8424H659.053C658.013 33.1891 657.04 32.3891 655.947 31.9091C652.427 30.3491 648.667 30.3358 644.907 30.4291C644.813 30.3758 644.707 30.3224 644.587 30.2823C644.053 30.0157 643.52 29.7224 642.96 29.5491C639.907 28.6024 636.827 29.5491 633.747 29.5091C631.267 29.4824 629.067 30.3224 627.227 31.949C625.347 33.6157 623.6 35.4424 621.787 37.2025C621.48 37.3757 621.107 37.4957 620.88 37.749C616.907 41.989 612.187 45.0024 606.56 46.5624C606.413 46.6025 606.293 46.8024 606.16 46.9224C603.84 47.3223 601.48 47.6291 599.173 48.1357C596.707 48.6824 594.28 49.429 591.827 50.0824C590.373 52.549 587.44 51.2557 585.52 52.549C585.08 52.8423 584.693 53.2424 584.28 53.589C583.573 53.629 582.76 53.4423 582.173 53.7224C579.507 55.069 576.907 56.5357 574.28 57.949C570.787 58.2157 569.227 60.7625 567.787 63.4691L567.8 63.4824C567.507 63.8557 567.227 64.2158 566.933 64.5891C566.44 66.1224 566.04 67.6957 565.427 69.1757C564.36 71.7758 564.96 74.2957 566.253 76.4424C568.107 79.4824 570.08 82.5491 573.347 84.4024C575.76 86.8558 579.147 86.709 582.12 87.709C583.293 88.0691 584.453 88.5624 585.667 88.749C589.093 89.2823 592.453 89.9357 595.293 92.0957C597.44 94.1357 600.08 95.3891 602.84 96.0691C607.013 97.0958 611.28 98.1357 615.547 98.2957C618.12 98.4024 620.387 99.0957 622.76 99.6824C624.507 100.029 626.24 100.429 628 100.722C630.627 101.189 633.267 101.576 635.893 102.002C636.227 103.869 635.453 105.936 636.96 107.576C636.88 107.829 636.853 108.082 636.88 108.336C636.547 108.736 636.2 109.136 635.853 109.522C635.52 109.562 635.187 109.629 634.853 109.709C634.853 109.722 634.853 109.722 634.853 109.722C633.853 109.509 632.64 108.829 631.893 109.162C629.493 110.242 627.267 111.696 624.96 113.002C624.24 113.002 623.507 112.989 622.773 112.976C622.427 112.909 622.067 112.869 621.693 112.869C620.347 111.549 618.853 110.722 616.813 110.989C615.787 111.136 614.68 110.949 613.64 110.762C610.613 110.202 607.627 109.336 604.587 109.042C603.213 108.909 602.933 107.749 601.947 107.429C600.307 106.709 598.707 105.909 597.027 105.296C594.84 104.482 592.533 103.962 590.4 103.042C587.88 101.962 587.933 101.842 586.013 103.909C585.64 104.296 585.213 104.642 584.827 105.029C583.4 106.509 583.56 107.242 585.52 108.042C586.853 108.589 588.587 108.722 589.493 109.669C591.467 111.736 592.867 110.629 594.453 109.389C594.547 109.309 594.8 109.402 595.147 109.442C595.253 110.469 595.293 111.549 595.467 112.602C595.653 113.682 596.587 113.909 597.48 114.122C597.587 114.469 597.56 114.962 597.787 115.122C598.907 115.949 600.307 116.482 601.173 117.496C602.067 118.522 602.373 120.042 603.147 121.202C603.613 121.909 604.48 122.336 605.16 122.882C605.16 122.882 605.173 122.882 605.173 122.869C605.373 123.069 605.627 123.176 605.893 123.256C606.373 123.496 606.853 123.749 607.32 123.989C607.413 124.696 607.507 125.402 607.6 126.096C606.56 127.536 605.04 127.282 603.627 127.149C600.053 126.842 596.467 126.096 592.907 126.162C587.213 126.242 581.813 125.429 576.747 122.749C573.4 121.042 569.947 121.229 566.293 121.696C562.933 122.122 561.08 123.696 559.88 126.696C558.933 129.069 558.76 131.269 560.04 133.509C560.76 134.762 561.52 135.989 562.253 137.242C566.187 142.336 571.613 144.722 577.747 145.856C580.453 147.629 582.533 150.256 585.653 151.482C587.107 152.056 587.853 153.389 588.2 154.802C588.547 156.189 588.6 157.642 588.773 159.069C587.373 162.909 587.587 166.896 587.707 170.869C587.787 173.962 587.627 176.989 586.44 179.909L586.413 179.882C584.387 180.202 583.4 181.882 583.733 183.416C584.813 188.482 583.6 193.589 584.36 198.629C583.08 202.189 580.8 205.456 580.987 209.469C579.36 210.976 580.213 213.096 579.667 214.869C577.093 217.389 574.96 220.096 575.72 224.042C574.52 226.096 573.333 228.162 572.133 230.216C570.573 230.629 569.013 231.016 567.467 231.456C565.067 232.136 565.027 232.242 565.667 234.802C566.147 236.749 566.12 236.882 564.453 237.656C563.813 237.949 563.107 238.122 562.427 238.349C559.267 238.736 556.093 239.162 553.6 241.469C551.067 242.416 548.293 243.029 547.027 245.882C546.333 246.496 545.653 247.282 546.4 248.122C547.053 248.869 548.013 249.709 548.907 249.789C550.08 249.896 551.307 249.309 552.52 249.016C553.12 248.816 553.72 248.616 554.32 248.416C554.56 248.362 554.787 248.296 555.013 248.189C556.133 248.122 557.427 248.536 558.067 247.109C561 245.722 563.92 244.322 566.853 242.936C569.653 242.176 572.453 241.469 575.413 241.482C576.6 241.496 577.8 240.869 579 240.536C579.413 240.216 579.84 239.882 580.267 239.562C581.693 239.376 583.107 239.216 584.52 239.002C587.493 238.562 590.56 238.629 593.333 237.229C595 237.296 596.68 237.362 598.347 237.416C600.133 240.402 599.347 243.749 599.693 246.949C598.44 248.002 598.733 249.482 598.773 250.802C598.813 252.309 598.32 253.482 597.307 254.522C595.547 254.589 593.787 254.656 592.027 254.722C589.067 254.202 587.413 256.456 585.36 257.856C580.6 258.629 576.387 260.322 573.093 264.122C571.253 266.242 570.747 268.469 570.973 271.096C571.107 272.749 571.987 273.949 573.48 274.269C577.213 275.056 580.96 275.242 584.52 273.402C585.573 272.696 586.627 271.989 587.693 271.296C588.6 271.269 589.507 271.229 590.413 271.242C592.427 271.256 594.813 271.016 595.92 272.882C597.24 275.162 595.373 276.949 593.933 278.589C589.52 278.136 586.373 280.562 583.333 283.242C580.907 286.562 581.08 287.922 584.36 290.896C586.453 293.242 589.267 293.549 592.16 293.749C593.56 293.842 594.96 294.056 596.373 294.216C596.987 294.856 597.547 295.562 598.24 296.096C601.013 298.256 601.267 301.202 600.76 304.309C600.653 305.016 599.84 305.682 599.227 306.229C598.72 306.669 598.013 306.909 597.4 307.242C594.947 307.162 592.84 308.042 590.933 309.522C589.16 310.896 588.867 312.442 589.8 314.589C590.653 316.549 591.453 318.549 592.173 320.562C592.92 322.669 593.867 324.522 596.267 325.109C598.813 326.229 601.36 327.336 603.907 328.456C606.133 330.242 607.733 332.816 610.573 333.842C612.013 335.669 613.453 337.482 614.893 339.309C615.16 340.016 615.427 340.709 615.693 341.416C615.747 341.816 615.853 342.189 616.107 342.549C615.747 343.616 615.387 344.682 615.04 345.762C614.72 345.749 614.427 345.842 614.173 346.016C612.64 347.229 611.013 348.362 609.6 349.709C608.4 350.842 608.48 351.616 609.707 352.989C610.28 353.629 611.107 354.056 611.827 354.576C612.187 354.936 612.467 355.349 612.64 355.829C613.52 357.256 614.387 358.682 615.253 360.122C615.52 364.869 615.533 369.576 612.853 373.816C612.76 373.962 612.8 374.176 612.787 374.362C612.413 375.749 612.04 377.149 611.667 378.536C610 381.456 609.813 384.802 609.533 387.949C609.253 391.202 608.133 393.829 606.32 396.349C605.493 397.949 604.827 399.682 605.547 401.389C606.533 403.762 605.627 405.829 605.027 408.002C604.68 408.469 604.347 408.949 604 409.429C602.56 410.536 601.12 411.656 599.68 412.762C594.2 414.736 588.987 414.682 584.347 410.616C583.667 409.256 582.573 408.536 581.067 408.416C576.133 405.842 571.2 403.269 566.267 400.709C566.12 400.629 565.907 400.696 565.72 400.682L565.707 400.696C565.52 400.522 565.293 400.429 565.053 400.349C564.547 400.082 564.027 399.816 563.507 399.549C563.12 399.216 562.733 398.882 562.347 398.549C562.013 398.176 561.64 397.842 561.227 397.549L561.173 397.509C560.493 396.189 559.267 396.176 558.027 396.216C558.027 396.229 558.04 396.229 558.04 396.242C557.773 396.109 557.493 396.002 557.227 395.922C556.52 395.629 555.813 395.336 555.093 395.269C553.867 395.162 553.2 396.509 553.933 397.589C554.28 398.096 555.08 398.309 555.68 398.656C556.693 400.376 558.333 400.776 560.16 400.749L560.133 400.789C560.773 401.349 561.733 401.162 562.373 401.736C562.693 401.842 563.013 401.909 563.347 401.922C564.587 402.642 565.733 403.589 567.067 404.069C571.333 405.602 575.213 407.802 578.88 410.416C580.28 410.962 581.667 411.522 583.067 412.069C583.6 415.402 584.12 418.749 584.693 422.096C584.747 422.416 585.067 422.696 585.253 422.989C586.693 425.789 586.573 428.642 585.533 431.522L585.493 431.602C585.307 431.736 585.187 431.909 585.093 432.109C584.693 432.602 584.307 433.096 583.907 433.589C583.307 434.029 582.707 434.469 582.107 434.922C580.493 434.802 579.493 435.896 578.4 436.816C577.453 437.602 576.493 438.389 575.547 439.189C575.173 439.162 574.813 439.096 574.453 439.122C572.827 439.229 571.067 439.122 570.453 441.149C570.36 441.442 570.507 441.882 570.68 442.176C571.573 443.696 573.04 443.656 574.533 443.509C575.547 443.856 576.56 444.402 577.613 444.496C579.72 444.682 581.453 445.509 582.947 446.949C583.28 449.402 582.587 451.562 581.08 453.509C578.08 455.296 576.027 457.909 574.453 461.016C573.413 463.069 572.293 465.149 570.907 466.989C569.76 468.509 568.16 469.709 566.76 471.056C566.76 471.056 566.76 471.056 566.76 471.042C564.067 470.922 561.32 471.362 558.787 469.802C556.8 468.576 554.6 467.682 552.493 466.642C552.733 459.896 548.933 454.736 545.573 449.456C543.64 446.416 540.533 446.629 538.707 449.749C538.28 450.469 538.28 451.456 538.08 452.322C536.067 454.762 533.387 454.749 530.613 454.349C529.84 453.976 529.093 453.442 528.28 453.269C526.893 452.989 525.4 453.149 524.08 452.736C521.733 452.002 519.373 451.856 517.36 453.189C515.013 454.749 512.627 456.536 512.747 459.909C511.16 463.176 511.36 466.696 511.293 470.176C511.28 470.456 511.64 470.762 511.827 471.056C511.853 471.402 511.893 471.762 511.92 472.122C511.52 475.776 511.12 479.416 510.72 483.069C510.493 483.336 510.187 483.549 510.04 483.856C509.16 485.709 509.36 488.056 507.413 489.402C505.773 488.109 504.133 486.816 502.48 485.522C502.347 485.416 502.227 485.269 502.107 485.149H502.093C501.987 484.482 501.88 483.816 501.76 483.149C500.267 479.642 501.6 476.722 503.813 474.149C505.333 472.389 507.147 470.896 509.053 469.069C506.76 468.562 505.333 469.856 503.92 470.856C501.093 472.856 498.48 472.429 495.853 470.509C495.013 469.896 494.08 469.389 493.187 468.829C492.627 468.136 492.2 467.269 491.493 466.776C489.187 465.176 486.573 463.856 487.16 460.309C487.2 460.056 486.773 459.736 486.6 459.429C485.293 457.229 483.64 455.416 481.173 454.496C481.04 452.989 481.387 451.376 480.187 450.109C479.627 448.096 480.827 446.909 482.2 445.802C484.04 445.429 485.867 445.056 487.693 444.682C488.867 444.296 490.08 444.002 491.187 443.469C491.747 443.202 492.413 442.482 492.427 441.949C492.427 441.456 491.707 440.696 491.147 440.509C487.44 439.282 483.693 438.162 479.96 437.016C478.507 436.282 477.053 435.562 475.587 434.829C474.267 434.029 472.947 433.242 471.627 432.442C470.973 432.349 470.507 431.989 470.213 431.402C470.227 431.376 470.253 431.349 470.267 431.322C469.907 428.389 468.627 425.922 466.453 423.922C464.387 422.029 462.333 420.109 460.267 418.202C458.333 415.162 457.667 411.469 455.413 408.576C455.027 408.082 454.92 407.122 455.093 406.482C456.52 401.282 454.933 396.936 451.533 393.042C452.027 389.856 450.92 386.856 449.613 384.202C447.12 379.109 447.04 373.362 444.787 368.256C444.453 367.509 444.76 366.482 444.773 365.576C445.187 363.269 445.613 360.976 447.12 359.056C448.547 357.456 450 355.882 451.4 354.269C452.88 352.562 452.987 351.002 451.387 349.936C450.093 349.056 448.493 348.656 447.027 348.042V348.029C446.64 346.989 445.813 346.842 444.84 346.936C445.213 347.122 445.573 347.309 445.947 347.482C445.533 347.376 445.133 347.269 444.84 346.936C444.08 346.602 443.32 346.269 442.547 345.936C442.253 345.282 441.733 344.642 441.707 343.962C441.427 338.656 443.827 335.256 448.973 333.469C449.467 333.296 449.92 332.976 450.387 332.709C454.173 331.469 457.693 329.602 461.56 328.456C464.587 327.562 467.733 325.896 468.067 321.909C470.64 315.442 470.52 314.816 465.907 310.362C465.28 309.056 464.08 308.709 462.8 308.442C459.04 307.642 455.307 306.776 451.573 305.936C451.587 304.242 451.6 302.549 451.613 300.869C452.027 300.176 452.427 299.469 452.84 298.776C453.947 297.736 455.053 296.682 456.173 295.629C458.453 294.149 460.88 293.522 463.587 294.256C464.24 294.442 464.96 294.336 465.653 294.376C466.067 294.362 466.467 294.362 466.867 294.349C469.52 294.869 472.053 293.909 474.24 292.936C479.107 290.736 480.293 286.842 475.973 283.322C473.133 281.016 469.893 279.376 466.013 279.709C464.787 279.402 463.573 279.069 462.347 278.789C460.32 278.349 459.333 276.296 460.68 274.722C463.427 271.469 463.8 270.402 468.52 271.442C469.773 271.722 470.987 272.149 472.213 272.496C473.44 273.722 474.907 274.376 476.64 274.456C479.16 276.002 481.92 275.536 484.64 275.402C490.4 275.136 489.867 272.909 489.533 268.522C489.48 267.682 488.893 266.776 488.307 266.122C487.093 264.789 485.707 263.589 484.387 262.336C484.027 261.989 483.667 261.642 483.293 261.309C480.067 260.176 476.653 259.402 473.667 257.816C470.493 256.109 467.24 255.616 463.8 255.562C462.64 255.229 461.467 254.896 460.307 254.576C459.973 252.056 459.627 249.522 459.293 247.002C459.72 244.616 458.867 242.016 460.467 239.789C461.12 238.882 461.8 238.082 463.013 238.042C463.92 238.016 464.813 238.029 465.72 238.029C465.907 238.296 466.173 238.389 466.493 238.322C467.507 239.469 468.787 239.429 470.12 239.109C471.587 239.176 473.04 239.242 474.507 239.322C474.867 239.349 475.24 239.376 475.613 239.402C478.6 240.762 481.507 242.496 484.907 242.362C488.08 242.242 491.027 243.109 494.04 243.816C495.573 244.509 497.12 245.202 498.667 245.882L499.16 246.122L499.693 246.082C501.16 246.776 502.613 247.482 504.08 248.189C506.373 249.762 508.867 249.429 511.36 248.936C511.627 248.882 511.8 248.402 512.013 248.122C512.933 247.136 512.853 245.909 511.84 245.349C508.627 243.589 506.187 240.349 502.147 240.149C502.133 240.162 502.133 240.176 502.12 240.202C501.68 240.002 501.267 239.762 500.893 239.482C499.36 239.122 497.853 238.682 496.32 238.416C494.8 238.149 493.733 237.442 493.2 235.976C494.467 233.082 494.467 233.082 491.88 232.362C490.853 232.069 489.813 231.842 488.773 231.589C488.373 231.256 487.973 230.922 487.573 230.589C486.147 228.176 484.107 226.149 484.12 222.922C484.133 221.509 482.92 219.922 481.907 218.722C480.24 216.736 478.893 214.709 478.72 212.029C478.693 211.576 478.16 211.149 477.867 210.709C478.013 208.669 477.6 206.776 476.613 204.936C474.867 201.656 474.24 198.109 474.427 194.376C474.573 191.469 474.467 188.549 474.507 185.629C474.52 184.136 474.44 182.669 473.28 181.576C470.373 178.802 469.907 175.309 470.053 171.522C470.147 168.802 470.027 166.069 469.827 163.349C469.667 161.189 469.267 159.042 468.96 156.896C468.827 157.109 468.693 157.322 468.56 157.522C468.627 157.282 468.747 157.056 468.96 156.896C469.293 154.642 470.453 153.002 472.373 151.696C476.2 149.082 479.8 146.069 484.373 144.749C485.987 144.029 487.653 143.376 489.227 142.562C491.12 141.602 491.907 139.629 491.147 137.616C490.16 135.056 488.813 132.856 486.267 131.336C483.72 129.816 481.12 128.576 478.28 128.042C472.573 126.989 466.827 126.816 461.027 127.816C457.493 128.416 453.867 128.429 450.267 128.682C449.947 128.696 449.6 128.442 449.253 128.309C449.253 127.589 449.253 126.869 449.253 126.149C449.387 126.029 449.587 125.949 449.667 125.802C450.747 123.736 451.893 121.709 452.84 119.589C453.76 117.509 454.24 115.202 456.307 113.762C456.573 113.576 456.6 112.709 456.427 112.282C455.787 110.722 454 109.549 452.587 109.882C447.547 111.069 442.52 112.362 437.507 113.629C437.36 113.669 437.253 113.882 437.133 114.016C435.333 114.349 433.533 114.682 431.747 115.016C431.747 115.016 431.747 115.016 431.733 115.016C428.987 112.322 425.92 110.549 421.88 111.709C421.52 111.336 421.16 110.976 420.8 110.616C420.773 110.269 420.693 109.936 420.56 109.616C421.467 108.336 421.213 106.856 421.253 105.442C421.307 104.109 421.947 103.376 423.267 103.482C425.893 103.696 428.253 102.882 430.587 101.856C430.96 101.536 431.307 101.536 431.653 101.882C432.04 101.856 432.427 101.829 432.8 101.802C433.187 101.496 433.573 101.216 433.987 100.949C433.987 100.976 433.987 101.016 434 101.042C434.347 101.082 434.653 101.016 434.947 100.816C437.053 100.456 439.16 100.122 441.267 99.7358C444.44 99.1758 447.6 98.4957 450.787 98.0024C454.787 97.3891 458.36 95.9091 461.32 93.0691C464.667 91.4024 468.053 90.0157 471.827 89.3624C473.813 89.0157 476.187 89.3757 477.893 87.7358C480.787 87.4158 482.747 85.6824 484.467 83.5358C484.68 83.0157 485.053 82.6024 485.44 82.1891L485.48 82.149C485.893 81.829 486.187 81.3757 486.667 81.1357L486.627 81.1624C486.627 81.149 486.627 81.149 486.627 81.149C486.987 80.7757 487.347 80.4024 487.72 80.0291L487.733 80.0424C488.133 79.3358 488.533 78.6291 488.933 77.9224C488.933 77.9091 488.933 77.9091 488.933 77.9091C488.907 77.9224 488.88 77.9224 488.853 77.9224C489.133 77.4957 489.427 77.1091 489.76 76.7224C490.04 75.1757 490.92 73.4424 490.493 72.1091C489.653 69.4691 488.107 67.0291 486.853 64.5091C486.053 63.1357 485.28 61.7357 484.453 60.3757C483.693 59.1224 482.44 59.0024 481.147 59.0691C480.453 58.5624 479.813 57.9358 479.053 57.5624C477.173 56.6158 475.24 55.789 473.32 54.9224C473.04 54.7224 472.733 54.6425 472.4 54.6691C471.747 54.3757 471.107 53.8423 470.453 53.8157C467.453 53.6957 464.827 52.8291 462.307 51.0958C460.907 50.1224 458.8 49.4424 457.173 49.6824C454.813 50.0291 452.92 49.3757 450.853 48.6157C449.693 48.189 448.36 48.2424 447.107 48.0958C447.093 48.0958 447.093 48.0958 447.093 48.0958C444.96 47.0024 442.84 45.8957 440.707 44.789C439.893 44.0823 439.067 43.3757 438.253 42.6557C436.107 40.7623 433.64 39.1224 431.907 36.9091C429.52 33.8691 426.533 32.3224 422.893 31.6958C421.333 31.3891 419.76 30.8024 418.213 30.8557C414.827 30.9757 411.387 31.1358 408.08 31.8291C404.8 32.5091 401.2 32.4158 398.44 34.8291C396.44 35.6025 394.427 36.3757 393.053 38.1757C388.427 40.2824 384.827 43.5223 382.387 47.989C381.16 50.229 380.053 52.5224 378.893 54.8024C377.987 56.6024 377.293 58.5358 376.16 60.1625C374.24 62.8958 373.04 65.8958 372.12 69.0557C371.467 70.1357 370.8 71.2157 370.147 72.2957L370.32 72.4557C370.32 72.4691 370.32 72.4824 370.32 72.4957C370.267 72.4291 370.213 72.3624 370.147 72.2957C368.8 72.8024 367.493 73.5624 366.093 73.8024C361.547 74.6024 357.533 76.6024 353.64 78.9624C351.293 80.389 348.787 81.269 345.933 81.3091C343.72 81.3358 341.693 82.2557 340.467 84.3224C336.547 85.0157 333.667 87.1757 331.627 90.549C331.187 91.269 330.547 91.8824 329.853 92.7358C328.707 91.8691 327.587 90.5491 326.067 91.829C324.813 92.8957 323.787 92.5624 322.853 91.4291C322.16 90.6024 321.307 89.8424 320.867 88.8957C319.973 86.9224 318.373 86.4557 316.467 86.4291C316.44 86.1224 316.373 85.829 316.253 85.549C315.827 84.509 315.133 83.269 314 83.6424C311.013 84.6424 309.493 83.2691 308.733 80.7224C308.293 79.2691 307.253 78.7491 306.107 78.2424C304.8 77.6691 303.427 77.2024 302.093 76.6824C301.56 75.749 301 74.9758 299.693 75.0691C299.053 75.1091 298.387 74.6957 297.733 74.4824C297.493 74.2424 297.2 74.1357 296.893 74.0557C296.44 73.8157 295.973 73.5757 295.52 73.3358C295.52 73.3358 295.52 73.3358 295.533 73.3358C292.96 71.8958 290.4 70.4424 287.813 69.0291C287.533 68.8691 287.12 68.9491 286.76 68.9091C285.947 67.9624 285.2 66.9357 284.32 66.0691C282.787 64.5757 282.08 63.1358 282.96 60.8291C283.693 58.8958 283.973 56.6157 282.347 54.7224C280.747 51.189 281.32 47.429 281.173 43.749C281.173 43.0157 281.187 42.2825 281.2 41.5624C281.267 41.2158 281.293 40.869 281.267 40.5223C282.8 39.0424 282.48 37.1491 282.16 35.4024C281.973 34.4291 281.28 33.4024 280.533 32.709C278.64 30.9357 276.707 31.5757 275.747 34.1091C273.627 39.6824 268.48 43.4824 262.667 43.789C261.093 43.8823 259.36 43.3757 258.053 44.8024C254.773 44.8691 251.48 44.949 248.2 45.0157C247.867 44.8957 247.533 44.8425 247.187 44.8291C246.08 43.7358 244.96 42.6425 243.853 41.5624C243.267 38.9625 241.693 37.0823 239.667 35.4557C238.253 34.3357 236.56 33.269 235.707 31.7758C233.373 27.6824 229.427 25.2958 226.147 22.2291C223.76 20.0024 220.4 19.189 217.147 18.989C214.48 18.829 211.76 19.309 209.067 19.5223C207.187 19.6557 205.547 20.309 204.28 21.749C204.267 21.749 204.267 21.749 204.267 21.749C203.053 22.0024 201.84 22.269 200.627 22.5223C195.92 23.509 191.72 23.0157 188.907 18.5091C188.92 16.4957 188.733 14.4557 189.013 12.4824C189.707 7.6424 183.84 4.29572 180.107 5.57574C177.013 6.62909 173.92 7.73578 170.88 8.93579C168.16 10.0157 165.467 11.1357 162.853 12.4424C159.787 13.9757 156.813 15.7224 153.787 17.3757C151.627 18.5491 149.48 19.7225 147.32 20.8958C145.72 21.4158 144.693 22.5624 143.96 24.0024L143.933 24.0291C143.533 24.3491 143.227 24.7757 142.787 25.0557C142.747 25.069 142.72 25.0957 142.68 25.149C142.32 25.4691 141.947 25.7757 141.587 26.0824C141.573 26.0824 141.573 26.0824 141.573 26.0824C139.053 26.749 136.907 28.0157 135.12 29.949C134.133 31.0157 132.947 31.8957 131.853 32.8557C130.733 33.909 129.627 34.9757 128.52 36.0424C125.587 38.709 123.507 41.8691 122.84 45.8424C122.84 45.8557 122.84 45.8557 122.84 45.8557C122.28 46.5357 121.293 47.1757 121.227 47.9091C120.867 51.8824 118.053 55.1891 118.24 59.2958C118.28 59.9358 117.653 60.6024 117.333 61.2424C117.333 61.2424 117.333 61.2424 117.347 61.2557C116.64 62.0023 115.933 62.749 115.24 63.4957C113.867 66.189 113.853 68.8824 115.12 71.6558C116.16 73.9224 117.107 76.2557 117.893 78.6157C118.133 79.3491 117.693 80.2957 117.573 81.149C116.72 81.8024 115.84 82.4291 115 83.1091C111.573 85.8424 109.693 89.4557 109.16 93.7758C108.88 96.1091 108.733 98.4557 108.52 100.789C108.52 100.789 108.52 100.789 108.52 100.802C106.987 101.189 105.333 101.336 103.973 102.042C102.587 102.776 101.413 102.976 99.9466 102.469C98.9599 102.136 97.8667 102.082 96.8267 101.909C96.6267 101.736 96.3866 101.642 96.1466 101.576C95.6133 101.322 95.0799 101.056 94.5466 100.802C92.8266 99.5358 92.8133 99.5357 91.1066 100.762V100.776L91.04 100.736C89.1866 100.589 87.7867 101.296 86.8 102.816C86.7467 102.869 86.7067 102.922 86.6667 103.002C86.3333 103.016 86.04 103.109 85.76 103.296C83.8534 105.082 81.7467 106.722 81.2 109.509C79.0933 113.082 79.3067 114.442 82.4267 117.322V117.336C84.7334 120.989 88.3334 121.789 92.2934 121.789C93.44 122.322 94.5734 123.122 95.76 121.856C96.04 121.936 96.3333 121.962 96.6133 121.949C97.4399 122.176 98.28 122.629 99.0934 122.576C99.7334 122.536 100.307 121.856 100.96 121.522C103.28 120.309 105.28 120.349 107.347 122.402C108.68 123.722 110 124.976 110.573 126.709C111.707 130.202 114.413 131.309 117.64 131.629C119.627 131.816 121.653 131.856 123.64 131.682C125.76 131.509 127.587 132.122 129.413 133.002C129.48 135.469 129.547 137.936 129.613 140.402C129.653 140.762 129.68 141.136 129.72 141.496C130.467 141.949 131.16 142.589 131.973 142.829C138.427 144.749 145 146.082 151.68 146.816C153.493 147.016 155.333 147.042 157.16 147.136C160.187 147.296 162.907 146.349 165.387 144.682C166.747 143.776 168.013 142.736 169.32 141.749C169.253 141.629 169.187 141.509 169.093 141.389C169.12 141.389 169.133 141.389 169.147 141.389L169.32 141.749C169.987 141.229 170.787 140.802 171.28 140.149C172.227 138.882 173 137.482 173.84 136.149C173.84 136.149 173.84 136.149 173.84 136.136C176.72 134.696 179.6 133.242 182.413 131.829C182.827 132.149 183.16 132.322 183.36 132.589C185.827 136.016 188.76 138.376 193.347 137.029C193.52 136.976 193.707 137.016 193.893 137.016C195.693 136.976 197.067 137.536 197.653 139.456C197.8 139.922 198.333 140.269 198.693 140.656C199.8 142.962 201.613 141.749 203.213 141.562C204.267 141.936 205.32 142.309 206.373 142.682C206.867 144.202 207.12 145.856 207.907 147.202C209.413 149.762 209.893 152.976 212.707 154.749C213.747 155.402 214.613 155.682 215.6 154.869C216.507 154.136 217.32 153.256 218.387 152.802C218.813 152.722 219.24 152.642 219.707 152.509C222.48 153.096 225.24 153.696 228.027 154.242C229.28 154.482 229.44 153.509 229.613 152.616C229.613 152.616 229.613 152.616 229.627 152.616C230.32 152.722 231.027 152.869 231.733 152.909C234.173 153.082 236.667 153.096 238.947 152.309C241.8 151.322 244.36 149.576 247.36 148.829C247.947 148.682 248.387 147.922 248.853 147.309C248.96 147.216 249.053 147.109 249.133 146.962C249.64 146.282 250.147 145.616 250.64 144.949C250.653 144.949 251 145.002 251 145.002L251.347 144.949C253.867 147.402 256.2 150.189 260.307 149.549C260.467 149.522 260.693 149.589 260.813 149.696C262.333 151.216 264.093 150.589 265.84 150.296C267.133 150.082 268.36 150.229 269.24 151.362C269.8 151.042 270.373 150.789 270.96 150.576C270.573 151.096 269.933 151.282 269.24 151.362C269.813 153.576 271.653 153.496 273.36 153.669C275.92 155.296 278.453 156.949 281.027 158.522C282.92 159.669 283.907 161.162 283.28 163.429C280.733 165.229 278.187 167.042 275.64 168.856C274.907 169.576 274.187 170.309 273.453 171.042C273.12 171.456 272.787 171.869 272.453 172.282L272.44 172.309C271.893 172.749 271 173.082 270.827 173.629C269.587 177.656 268.48 181.736 267.373 185.802C267.32 185.976 267.8 186.296 268.027 186.536V186.549C268.707 187.749 269.387 188.962 270.067 190.176C270.493 190.722 270.84 191.576 271.4 191.762C272.747 192.202 273.6 192.869 273.733 194.362C273.787 194.882 274.08 195.389 274.253 195.909C274.68 197.056 275.44 197.656 276.72 197.602C277.44 197.576 278.173 197.709 278.893 197.762C279.653 198.962 280.76 199.642 282.16 199.856C283.173 201.456 283.173 201.456 281.547 202.416C281.4 202.509 281.293 202.669 281.173 202.802C275.067 203.829 269.04 205.456 262.76 205.029L262.707 205.056C261.893 204.416 261.093 203.776 260.28 203.136L260.227 203.109C259.787 202.362 258.987 202.149 258.44 202.656C256.773 204.189 254.693 204.616 252.64 205.189C252.28 205.189 251.92 205.176 251.56 205.176C249.827 205.402 247.973 205.309 246.413 205.949C244.76 206.616 243.307 206.202 241.76 206.109C241.787 206.082 241.8 206.056 241.827 206.029H241.84C241.827 206.029 241.827 206.029 241.827 206.029H241.84C241.36 205.829 240.773 205.336 240.453 205.469C236.72 207.029 232.92 206.256 229.147 205.869C227.16 205.656 225.187 205.376 223.213 205.136C221.44 202.896 218.76 202.602 216.347 202.696C211.773 202.856 207.32 203.056 203.427 200.016C202.933 199.629 202.027 199.762 201.307 199.669V199.656C201.36 198.629 201.28 197.576 201.52 196.589C201.8 195.442 201.307 194.909 200.373 194.642C198.587 194.122 196.88 194.536 195.173 195.176C194.12 195.562 193.067 195.456 192.44 194.269C192.267 193.869 192.08 193.136 191.92 193.149C190.693 193.176 189.467 193.336 188.24 193.482C187.027 193.629 185.8 194.042 184.613 193.962C182.12 193.776 179.64 193.336 177.16 193.002C176.96 192.696 176.64 192.416 176.587 192.082C175.987 188.922 174.493 186.949 170.88 187.336C170.053 187.416 169.173 186.789 168.28 186.629C167.12 186.416 166.173 187.136 165.907 188.349C165.493 190.282 165.107 192.229 164.707 194.162C163.187 194.562 161.387 193.829 160.12 195.309C157.44 198.429 155.627 202.349 151.787 204.442C151.507 204.589 151.267 204.989 151.173 205.322C150.6 207.296 149.28 208.789 148.107 210.416C147.427 211.336 147.48 212.789 147.2 214.002C147.067 214.109 146.8 214.256 146.813 214.322C146.88 214.602 147.04 214.856 147.173 215.122C147.173 215.122 147.173 215.122 147.16 215.122C148.613 218.296 148.613 221.616 148.24 224.976C147.653 226.069 147.227 227.322 146.427 228.229C142.947 232.109 141.413 236.989 139.653 241.669C138.267 245.309 136.493 248.522 133.72 251.216C129.987 253.922 129.08 255.896 130.107 259.656C130.467 260.989 131.213 262.229 131.773 263.522C131.733 263.869 131.773 264.216 131.907 264.549C132.147 265.242 132.387 265.936 132.627 266.629C132.667 266.776 132.707 266.909 132.773 267.042C132.827 267.576 132.787 268.149 132.947 268.656C134.307 272.776 135.28 276.949 135.16 281.349C135.133 282.349 135.773 283.362 136.107 284.362C137.893 288.522 140.36 291.882 145.333 292.402C146.413 292.522 147.493 292.776 148.507 293.136C149.493 293.496 150.667 293.842 151.293 294.589C153.48 297.216 156.133 298.829 159.453 299.616C160.613 299.896 161.72 300.736 162.68 301.522C164.04 302.656 165.56 302.962 167.24 302.962C169.427 302.962 171.573 302.882 173.627 301.896C176.587 300.469 179.547 300.629 182.56 301.949C183.867 302.522 185.347 302.656 186.747 302.989C187.587 304.856 188.8 306.402 190.573 307.496C194.253 309.736 197.04 313.256 201.187 314.869C201.613 315.029 201.84 315.709 202.16 316.149C202.547 318.136 202.88 320.149 204.253 321.776C204.213 322.109 204.267 322.416 204.4 322.722C204.333 323.962 204.413 325.229 204.147 326.429C203.64 328.682 204.093 330.616 205.533 332.376C206.2 333.202 206.827 334.056 207.48 334.896C207.467 335.256 207.56 335.602 207.747 335.909C207.92 335.856 208.093 335.829 208.253 335.816C208.08 335.856 207.907 335.882 207.747 335.909C208.04 336.656 208.32 337.402 208.613 338.149C208.533 338.909 208.533 339.642 208.613 340.349C208.613 341.069 208.627 341.802 208.707 342.509C209.267 347.016 209.933 351.482 213.053 355.136C214.293 356.589 214.787 356.856 216.787 356.136C217.08 356.069 217.387 355.949 217.667 355.789C219.24 356.602 220.907 357.242 220.853 359.536C220.813 361.096 220.68 362.896 221.36 364.162C222.293 365.896 224.64 364.856 226.2 365.616C226.253 366.882 226.28 368.162 226.387 369.416C226.507 370.709 227.493 371.402 228.587 371.456C230.013 371.536 231.453 371.202 232.88 371.056C233.227 371.149 233.587 371.189 233.947 371.162C235.133 372.749 236.693 374.242 235.973 376.496C235.333 378.469 236.16 379.856 237.213 381.456C238.88 383.989 240.653 386.576 240.747 389.816C239.827 390.229 239.32 390.856 239.587 391.909C239.8 392.416 240.027 392.909 240.227 393.402C242.28 398.536 245.653 401.789 251.56 401.842C252.747 401.856 254.027 402.456 255.12 403.042C257.6 404.376 259.88 404.536 262.213 402.722C262.88 402.189 263.867 402.082 264.707 401.776C268.107 401.469 268.667 401.056 269.08 398.389C269.187 397.682 269.093 396.962 269.16 396.242C269.28 395.029 269.947 394.282 271.187 394.162C272.76 394.002 274.467 394.416 275.787 393.136C275.733 393.069 275.68 393.002 275.627 392.936C275.64 392.936 275.64 392.936 275.64 392.936L275.787 393.136C278.267 392.962 280.64 394.802 283.213 393.562C283.413 393.469 284.253 394.082 284.333 394.469C285.12 398.042 288.213 397.722 290.733 398.389C293.44 396.922 296.413 397.656 299.267 397.389C299.907 397.336 300.507 396.749 301.12 396.416C302.68 395.229 304.4 394.442 306.373 394.296C307.213 395.949 308.467 397.189 310.373 397.322C312.32 397.456 314.333 397.402 315.507 395.349C317.187 394.816 318.533 395.882 320.027 396.256C321.693 396.682 323.36 397.509 325.093 396.496C325.48 396.429 325.853 396.376 326.227 396.322C326.6 395.976 326.933 395.616 327.227 395.216L327.253 395.162C328.64 394.536 329.827 393.776 329.533 391.949C329.6 391.296 329.92 390.482 329.653 390.029C329.333 389.469 328.4 389.322 327.92 388.816C326.733 387.576 327.027 386.282 328.667 385.442C331.04 384.229 333.253 382.536 336.213 383.056C336.587 383.122 337.093 382.536 337.547 382.242L337.987 382.189C338.547 382.282 338.947 382.682 339.387 382.989C339.893 383.136 340.4 383.269 340.907 383.402C343.48 384.082 344.093 385.242 343.013 387.536C342.64 388.322 342.053 389.002 341.573 389.736C340.827 390.149 340.733 390.522 341.64 390.842C342.027 391.189 342.373 391.616 342.827 391.856C345.987 393.576 346.547 396.362 345.96 399.576C345.813 400.416 345.32 401.216 344.987 402.029C344.64 402.202 344.493 402.482 344.44 402.816C344.187 403.176 343.947 403.536 343.693 403.896C341 404.336 339.88 406.656 338.293 408.402L338.28 408.362C336.853 409.016 335.293 409.482 334 410.349C332.733 411.202 332.507 412.682 332.773 414.202C332.987 415.389 333.627 416.109 334.84 416.296C334.84 416.282 334.84 416.282 334.853 416.282C335.213 417.042 335.573 417.802 335.947 418.562C335.947 418.576 335.947 418.576 335.947 418.576C336.68 419.709 337.4 420.829 338.12 421.949C338.08 422.856 338.187 423.802 337.96 424.656C337.16 427.762 335.133 428.656 332.227 427.282C331.573 426.976 330.8 426.736 330.333 426.229C328.707 424.469 326.707 424.109 324.453 424.189C323.373 424.229 322.12 424.269 321.24 423.776C318.84 422.442 317.133 423.416 315.427 424.989C314.413 425.922 313.573 425.669 312.693 424.642C312.32 424.202 311.24 423.829 310.88 424.056C308.92 425.296 306.347 425.656 305.133 427.962L305.427 428.269V428.282C305.32 428.176 305.227 428.069 305.133 427.962C303.04 428.402 300.92 428.309 298.827 429.149C296.907 429.922 294.64 429.816 292.533 430.149C290.947 430.402 289.373 430.722 287.787 430.989C285.613 431.349 284.12 432.122 284.373 434.816C284.547 436.762 283.04 437.096 281.413 436.882C280.533 435.682 279.32 435.536 278.053 436.029C276.507 436.629 275.027 437.029 273.387 436.309C270.613 435.096 268.547 436.442 266.733 438.376C266.427 438.709 266.2 439.456 266.373 439.789C266.533 440.136 267.227 440.336 267.72 440.376C268.6 440.442 269.507 440.282 270.4 440.349C271.907 440.469 272.133 440.882 272.293 443.442C270.387 443.736 269.347 445.002 268.693 446.696C268.68 446.696 268.68 446.696 268.68 446.696C267.573 446.762 266.307 446.922 265.96 448.056C265.187 450.656 263.52 451.322 261.053 451.002C259.813 450.842 258.533 451.189 257.293 451.056C254.613 450.776 252.36 451.642 250.28 453.229C245.067 455.949 245.067 455.949 240.52 455.682C240.32 455.429 240.08 455.282 239.827 455.202C239.467 454.962 239.12 454.722 238.733 454.616C236.613 454.029 235.187 452.722 234.693 450.629C233.96 447.469 231.707 446.149 228.827 445.936C226.72 445.776 225.027 445.016 223.307 443.949C222.253 443.296 221.04 442.896 219.907 442.376C219.56 442.096 219.16 442.029 218.747 442.002C218 441.749 217.267 441.509 216.52 441.269C215.48 439.816 214.453 438.376 213.413 436.922C213.36 436.562 213.227 436.229 213.027 435.922C212.787 435.442 212.68 434.696 212.307 434.536C209.68 433.402 207.013 432.376 204.347 431.309C201.387 428.696 198.387 428.202 195.28 431.109C194.773 431.602 194.147 432.136 193.493 432.282C190.787 432.869 191 434.936 190.987 436.922C190.64 437.229 190.293 437.549 189.947 437.856C188.773 437.989 187.813 437.669 187.227 436.549C186.08 434.389 184.28 433.402 181.853 433.709C179.773 433.962 177.933 433.216 176.107 432.429C174.707 431.136 173.027 431.416 171.373 431.562C170.64 431.589 169.92 431.629 169.187 431.656C169.187 431.656 169.187 431.656 169.187 431.669C166.907 431.389 164.653 432.749 162.267 430.776C160.693 429.469 158.2 430.922 156.16 431.416C155.72 431.096 155.307 430.749 154.853 430.469C150.933 427.949 146.907 427.282 142.72 429.856C141.04 430.896 139.227 430.389 137.453 430.216C137.213 428.202 136 426.869 134.173 426.309C132.373 425.749 130.68 424.709 128.52 425.776C125.827 427.122 122.907 428.056 119.787 427.096C119.52 425.549 118.84 423.949 119.067 422.482C119.44 419.882 117.72 420.616 116.493 420.442C114.933 418.789 112.84 419.776 111.04 419.349L110.92 419.469H110.907C110.947 419.429 110.987 419.389 111.04 419.349C109.627 416.842 107.747 415.696 104.933 417.176C104.787 417.256 104.573 417.202 104.4 417.202C104.04 416.376 103.6 415.576 103.36 414.709C103.013 413.496 102.267 412.842 101.027 412.936C98.44 413.136 96.9467 411.856 96.16 409.536C95.5334 407.669 94.1333 407.162 92.3333 407.282C91.6133 407.336 90.8934 407.282 90.16 407.282C89.4667 406.749 88.7199 406.256 88.0799 405.656C86.8133 404.469 85.7866 402.629 84.3066 402.176C82.8 401.696 80.8799 402.576 79.1466 402.856C78.7866 402.509 78.4267 402.162 78.0534 401.816C78.0667 401.469 78.0667 401.122 78.0934 400.776C78.68 400.442 79.2667 400.109 79.8534 399.776C79.5067 399.202 79.1067 398.109 78.8267 398.149C76.84 398.376 75.9599 396.856 74.7466 395.829C69.8533 391.616 64.2666 389.709 57.7733 390.696C55.1866 391.082 52.3733 390.162 49.4667 388.282C49.0133 387.989 48.48 387.629 48 387.656C45.5867 387.762 43.1067 388.882 40.8667 386.856C40.6533 386.656 39.6267 387.309 39 387.616C36.88 388.642 36.8399 388.656 35.2799 387.056C34.6533 386.402 33.84 385.789 33.5201 385.002C32.5734 382.722 30.5467 381.936 28.6 380.976C25.48 376.589 24.2533 371.816 25.9066 366.562C26.3066 365.256 25.92 364.309 24.84 363.842C22.3866 362.776 21.9201 360.776 21.9867 358.442C22.0001 357.536 22.0267 356.616 22.0534 355.709C22.3734 355.536 22.7066 355.376 23.0133 355.176C25.7733 353.376 26.1734 352.122 23.96 350.242C22.1334 348.696 22.3733 346.802 21.7733 344.962C21.0266 342.669 20.9067 340.869 22.5201 338.896C23.2401 338.016 22.4001 337.242 21.2534 337.322C20.2667 337.402 20.0133 336.802 19.8667 336.042C19.9733 335.856 20.0534 335.656 20.1201 335.469C20.6934 334.229 21.2267 332.962 21.8934 331.776C22.96 329.869 22.48 328.416 20.8667 327.162C21.1733 326.162 21.5867 325.189 21.76 324.176C22.08 322.122 22.6133 320.016 21 318.202C21.0267 317.936 21.04 317.682 21.0267 317.416C21.0267 317.402 21.0267 317.402 21.0267 317.402C22.44 315.349 23.64 313.109 25.3066 311.282C28.88 307.376 32.04 303.362 32.0934 297.709C32.0934 297.282 32.68 296.869 33 296.442C34.7067 296.136 36.2 296.749 37.6267 297.576C39.0267 298.389 40.2267 297.922 40.8 296.682C42.1333 293.776 44.7867 292.656 47.3333 291.349C48.9333 290.536 50.6267 289.869 52.16 288.949C53.0934 288.389 53.8666 287.589 54.6799 286.856C54.7866 286.776 54.8934 286.682 54.9867 286.576C58.16 287.509 61.4267 288.176 64.6534 287.376C66.5601 286.896 68.1867 287.096 69.9333 287.656C72.1867 288.376 74.4399 289.122 76.7466 289.576C78.8799 289.989 81.0267 289.989 82.8934 291.469C84.12 292.442 85.6934 292.042 87.0267 291.282C89.2534 290.016 91.6667 289.429 94.16 288.882C96.4267 288.376 98.6 287.256 100.653 286.109C102.48 285.082 103.6 283.402 103.32 281.122C103.627 280.669 103.973 280.256 104.413 279.936V279.949C104.613 279.722 104.72 279.456 104.813 279.162C105.053 278.696 105.293 278.229 105.533 277.762C105.533 277.776 105.533 277.776 105.533 277.776C109.893 277.949 111.973 274.976 113.813 271.709C114.507 270.496 114.147 269.136 112.947 268.376C111.387 267.402 109.827 266.496 107.893 267.736C105.587 269.216 103.147 269.322 100.587 268.229C99.44 267.736 98.0133 267.829 96.9066 267.269C93.0266 265.322 88.9599 265.069 84.7466 265.509C83.7066 265.616 82.4934 265.522 81.56 265.082C78.32 263.576 74.8933 263.469 71.44 263.456C70.0666 263.096 68.72 262.496 67.3333 262.429C63.9467 262.242 60.5333 262.202 57.2667 263.376C57.2533 263.376 57.2533 263.376 57.24 263.376C56.64 263.042 56.08 262.616 55.44 262.389C52.84 261.482 52.8 261.509 52.7201 259.269C52.6667 258.029 52.7334 256.776 52.7867 255.536C52.84 254.549 53.4134 253.962 54.32 253.589C54.96 253.322 55.5067 252.856 56.0934 252.469C57.1867 252.096 58.2666 251.722 59.3466 251.349C61.3199 251.362 63.2934 251.482 65.2534 251.322C66.2401 251.242 67.1866 250.629 68.1466 250.269C75.2799 249.736 82.1066 252.056 89.1066 252.736C90.2133 252.842 91.2133 253.989 92.2667 254.656C92.0667 255.509 91.4266 256.616 91.7466 257.162C92.6399 258.682 96.32 259.842 97.6 258.776C100.053 256.762 103.52 255.776 104.56 252.202C105.027 250.589 104.827 249.482 103.2 249.376C101.267 249.242 99.88 247.816 98.16 247.616C96.1867 247.402 94.8134 246.362 93.2534 245.429C92.5201 244.989 91.5333 244.949 90.6799 244.696C85.4799 243.122 79.8266 243.802 74.7466 241.562C74.4399 241.429 74.0267 241.549 73.6667 241.496C70.3067 241.002 66.8933 241.056 63.5333 240.509C62.12 240.296 61.6667 241.336 61.4534 242.496C58.9334 242.869 56.4267 243.229 53.92 243.602C52.8801 242.122 51.8933 240.602 50.7733 239.176C50.56 238.922 49.5867 238.869 49.36 239.109C48.48 240.002 47.96 241.362 46.96 242.002C44.24 243.762 43.8801 246.322 43.9867 249.162C43.9867 249.522 44 249.896 44 250.269C42.5333 250.616 41.0667 250.962 39.5867 251.309C38.16 250.469 36.9066 251.296 35.8133 251.962C35.1466 252.376 35.6133 253.176 36.2133 253.642C36.2133 253.656 36.2133 253.656 36.2133 253.656C36.2266 254.322 36.2401 254.989 36.2534 255.656C35.9467 256.109 35.5601 256.482 35.12 256.829C34.7734 256.816 34.4266 256.842 34.0799 256.896C33.7199 257.242 33.3466 257.589 32.9733 257.936C32.9733 257.922 32.9734 257.922 32.96 257.922C27.24 261.962 23.3733 267.602 19.8 273.456C18.5467 275.522 18.0667 277.802 19.7201 280.016C19.3867 281.069 19.04 282.136 18.7066 283.202C19.8933 283.256 20.6933 283.669 21.2667 284.416C20.3733 284.109 19.5066 283.722 18.7066 283.202C17.8266 284.536 17.1467 286.109 15.9867 287.136C14.6934 288.282 13.0267 289.122 11.4 289.749C9.88 290.336 9.14669 291.389 8.42669 292.696C7.17336 294.976 6.44 297.309 6.6 299.962C6.68 301.189 6.8 302.789 6.13333 303.642C4.26667 306.056 4.44 309.709 1.33333 311.336C0.96 311.522 0.693359 312.202 0.626693 312.682C0.253359 315.349 -0.599948 318.056 1.12005 320.589C0.306719 322.669 0.866693 324.469 2.29336 326.082C2.26669 326.802 2.24003 327.536 2.22669 328.269C2.18669 332.429 2.64005 336.629 1.18672 340.709C0.706719 342.056 0.106641 343.722 0.506641 344.936C1.49331 347.909 1.01333 350.642 0 353.296C0.84 353.962 2.53328 352.509 2.27995 354.602C2.19995 355.322 2.26667 356.069 2.26667 356.789C1.18667 360.162 0.479948 363.482 2.74661 366.709C3.55995 367.869 3.13331 369.122 2.57331 370.349C2.05331 371.482 1.15997 372.802 1.37331 373.856C1.82664 376.082 2.06669 378.616 4.36003 380.016C4.21336 381.362 4.08 382.709 3.93333 384.056C6.05333 384.882 5.51995 387.216 6.54661 388.669C6.79995 390.429 6.47995 391.896 4.81328 392.936C4.29328 393.256 3.65339 394.176 3.78672 394.629C4.69339 397.749 5.57328 400.936 6.94661 403.882C7.43995 404.962 9.32 405.336 10.4 406.242C11.6533 407.282 12.76 408.522 13.8667 409.736C15.36 411.336 15.32 411.336 13.96 413.842C13.7334 414.242 13.8134 414.802 13.76 415.296C14.24 415.122 14.7067 414.922 15.2 414.789C15.52 414.696 16.0401 414.549 16.1867 414.696C17.4934 416.136 18.9467 415.016 20.2934 414.882C22.36 414.669 21.76 412.696 22.24 411.442C22.2933 411.269 22.3734 411.082 22.4934 410.962C22.7467 410.722 23.0401 410.509 23.3201 410.269C23.4801 410.549 23.84 410.869 23.7867 411.096C23.3601 412.829 22.3733 414.576 24.2 416.122C24.7467 417.189 26.3599 417.496 26.0799 419.202C25.7866 420.949 28.1333 420.309 28.5733 421.616C28.9733 422.816 29.6133 423.936 30.1733 425.069C30.2266 425.176 30.4934 425.269 30.6267 425.242C32.2934 424.896 32.64 426.029 33.32 427.202C33.9201 428.216 35.2134 428.829 36.2534 429.549C36.4934 429.722 37.1867 429.696 37.2267 429.589C38.0934 427.322 41.68 427.629 41.8267 424.722C41.88 423.362 42.6933 423.296 43.6667 423.709C44.5067 424.069 45.2933 424.536 46.1066 424.949C46.8666 427.136 47.6266 429.322 48.3733 431.496V431.509C47.92 431.229 47.4533 430.949 47 430.656C44.9067 429.296 43.96 429.429 42.5867 431.322C41.9867 432.149 42.1467 432.789 42.7867 433.682C43.7867 435.109 41.7467 435.056 41.36 435.896C41.0267 436.629 41.0267 437.722 41.6934 437.562C44.28 436.896 43.7333 439.682 45.04 440.322C45.04 440.669 45.0533 441.016 45.1066 441.362C44.72 443.549 44.3333 445.749 43.9466 447.949C42.7199 449.776 41.5867 451.536 44.4 453.082C44.7733 453.282 44.8933 454.309 44.8133 454.922C44.7066 455.776 44.24 456.589 44.0667 457.442C43.7867 458.789 44.32 459.336 45.6934 459.216C46.5734 459.149 47.4533 459.082 48.3333 459.016C48.9467 460.056 50.8533 460.416 50.3066 461.962C50.0266 462.789 48.8933 463.322 48.2799 463.856C49.1199 465.296 49.9467 466.696 50.76 468.109C51.84 470.016 52.5334 471.802 52.0534 474.269C51.56 476.869 52.8133 479.282 55.9733 479.856C55.9733 479.856 55.9733 479.856 55.9733 479.869C56.1733 480.549 56.3733 481.229 56.5733 481.922C57.1866 484.122 57.6666 484.056 60.1066 487.602C61.68 489.909 65.36 491.042 64.64 494.829C64.6133 494.922 65.2 495.189 65.5333 495.282C67.1333 495.762 67.48 497.256 68.1333 498.496L68.1466 498.509C66.8266 499.136 66.3067 499.949 66.8 501.549C67.2667 503.069 67.9734 504.656 69.5201 504.402C71.6534 504.056 72.84 505.042 74.3333 506.122C75.2667 506.816 76.6266 507.202 77.8133 507.242C79.8533 507.309 81.0133 508.789 82.5333 509.696C82.9867 512.856 85.44 513.469 87.9867 513.882C89.08 514.056 89.3333 514.536 89.4 515.642C89.5067 517.336 92.5467 518.616 90.1333 520.749C90.08 520.789 90.32 521.429 90.5066 521.469C92.48 521.962 92.32 523.496 92.24 524.949C92.2 525.656 91.8934 526.349 91.7867 527.056C91.3334 529.909 92.08 530.762 95.5867 531.442C97.12 532.309 98.92 532.816 99.8667 534.496C101.333 537.109 103.707 538.056 106.533 538.162C108.947 542.309 108.947 542.309 113.107 545.176C113.4 545.376 113.64 545.842 113.92 545.869C114.76 545.909 115.6 545.802 116.453 545.749C116.787 547.509 116.787 547.509 118.653 546.842C118.667 547.189 118.68 547.536 118.693 547.882C119.067 548.256 119.36 548.682 119.733 549.042C120.68 551.229 122.693 552.829 124.68 552.896C127.76 552.989 130.48 554.696 133.52 554.549C133.613 554.616 133.773 554.616 134.04 554.522C134.347 554.562 134.667 554.589 134.973 554.616C134.907 555.522 134.84 556.416 134.76 557.522C136.213 557.722 137.613 558.002 139.013 558.109C140.88 558.229 142.04 558.976 142.2 560.962C142.24 561.496 142.573 562.002 142.667 562.536C143.173 565.082 142.72 565.669 139.947 566.669C138.587 567.162 137.253 567.789 136.013 568.509C135.213 568.989 134.547 569.442 133.52 569.189C132.32 568.896 131.867 569.642 131.973 570.722C132.067 571.696 132.533 572.522 133.6 572.576C135.827 572.709 137.667 571.802 139.44 570.456C141.547 568.856 142.4 569.362 142.84 572.122C142.987 572.976 142.92 574.162 143.44 574.589C145.213 576.029 147.093 577.522 149.173 578.376C150.8 579.056 152.667 579.149 154.187 580.282C154.827 580.762 155.507 580.362 155.987 579.656C156.907 578.309 157.04 576.976 156.107 575.602C154.867 573.762 154.733 571.896 155.933 569.976C154.493 568.402 151.307 570.362 150.587 567.322C152.92 564.442 154.867 568.456 157.093 567.722C157.733 567.442 158.6 567.336 158.96 566.842C160.107 565.336 161.053 563.682 162.093 562.056C162.667 562.549 163.32 563.109 164.187 563.869C165.053 562.696 165.907 561.616 166.627 560.469C166.893 560.056 166.84 559.442 166.92 558.909C166.96 558.189 166.987 557.456 167.027 556.722C166.987 555.256 166.947 553.789 166.893 552.322C167.413 550.456 167.413 550.456 169.133 551.322C169.507 553.842 171.187 555.056 173.467 555.682C174.747 556.896 176 558.056 175.907 560.122C175.813 562.149 177.467 562.149 178.907 562.256C179.2 562.789 179.507 563.336 179.8 563.869C179.88 564.082 179.973 564.282 180.12 564.456L180.107 564.469C180.813 565.562 181.52 566.669 182.227 567.762C182.347 568.949 182.08 570.256 183.36 571.042L183.373 571.056C183.613 571.722 183.667 572.536 184.107 573.029C185.933 575.096 186.653 577.616 187.133 580.309C188.867 580.709 190.747 579.402 192.24 580.896C193.32 584.296 193.92 584.602 196.64 583.136C197.72 583.282 199.04 583.362 199.293 584.589C199.547 585.829 199.907 586.456 201.28 586.562C202.32 586.642 203.333 587.149 204.36 587.469C204.667 587.869 205.093 588.162 205.347 588.616C205.333 588.976 205.347 589.322 205.427 589.669C205.32 590.016 205.28 590.376 205.28 590.749C204.213 591.549 204.333 592.736 204.253 593.869C204 594.362 203.667 594.802 203.24 595.162V595.176C202.027 596.069 201.96 597.362 202.213 598.642C202.72 601.309 203.333 603.962 203.947 606.602C204.813 610.282 204.48 611.082 201.24 612.709C200.747 612.949 200.267 613.269 199.747 613.376C197.307 613.909 194.72 614.042 192.453 614.976C190.187 615.922 188.92 618.576 186.227 619.136C185.6 619.256 185.093 619.962 184.52 620.402C181.947 621.789 179.387 623.016 176.28 622.869C174.267 622.776 172.84 624.416 172.253 626.109C171.667 627.776 172.947 629.282 174.307 630.189C175.293 630.856 176.627 631.242 177.84 631.296C181.107 631.482 184.4 631.322 187.68 631.469C191.493 631.642 194.867 630.629 197.813 628.229C201.8 628.242 205.84 627.589 209.68 629.296C210.667 630.029 211.56 630.962 212.667 631.442C213.96 632.016 215.507 632.029 216.813 632.562C219.453 633.642 222.053 634.696 223.187 637.842C224.133 640.496 226.067 642.309 229.253 642.429C230.84 642.496 232.4 643.109 233.987 643.482C236.32 646.936 241 646.882 243.627 649.909C245.173 649.802 246.68 651.082 248.253 650.056C248.8 650.069 249.36 650.056 249.907 650.096C252.68 650.309 253.267 650.629 253.707 653.016C254.067 654.922 254.933 656.776 253.893 658.882C253.413 659.842 253.813 661.402 254.16 662.589C254.573 663.962 255.373 665.229 256.013 666.549C255.773 667.789 255.04 669.189 255.4 670.216C256.053 672.122 255.8 673.642 255.067 675.402C254.68 676.296 254.907 677.576 255.173 678.589C255.453 679.616 256.307 680.482 256.56 681.509C256.8 682.496 256.88 683.696 256.533 684.602C255.44 687.442 255.347 687.402 255.907 690.442C256.96 690.602 258.04 690.762 259.107 690.922C259.107 691.242 259.187 691.549 259.347 691.816C259.28 692.536 259.2 693.256 259.133 693.976C256.32 695.482 255.96 696.136 257.12 698.282C257.613 699.189 258.427 699.922 259.093 700.722V700.736C259.093 700.736 259.093 700.736 259.093 700.722C259.4 701.309 259.707 701.896 260.013 702.482C260.067 702.642 260.147 702.802 260.253 702.936C260.64 705.282 259.28 707.856 261.227 710.029C261.493 710.322 261.4 711.069 261.267 711.562C260.72 713.629 260 715.616 258.067 716.869C250.84 717.482 243.6 716.922 236.373 716.856C235.133 715.802 233.947 715.936 232.773 716.976L233.04 717.242C233.013 717.269 232.973 717.296 232.947 717.322C232.893 717.202 232.84 717.082 232.773 716.976C229.547 716.949 226.32 716.922 223.093 716.909L223.107 716.896C222.267 715.976 221.253 715.896 220.387 716.669C219.413 717.536 219.84 718.509 220.6 719.349C220.213 719.896 219.907 720.776 219.4 720.936C217.413 721.536 217.213 723.362 216.427 724.802C215.387 724.829 214.347 724.962 213.32 724.882C211.387 724.736 209.88 725.642 208.44 726.722C207.293 727.589 207.56 728.962 207.533 730.189C206.413 731.256 205.293 732.322 204.173 733.389C201.947 733.869 201.467 735.802 201.213 737.522C200.973 739.122 200.52 740.282 199.067 741.002C198.067 741.496 197.907 742.296 198.36 743.256C199.613 745.962 198.96 748.149 196.613 749.922C196.2 750.242 195.92 750.736 195.573 751.162C194.573 751.189 192.987 750.856 192.92 752.016C192.813 753.816 194.587 753.162 195.68 753.309C196.013 753.349 196.36 753.242 196.707 753.216C197.56 753.829 197.907 754.562 197.12 755.456C196.307 756.389 195.227 757.176 194.667 758.242C194.147 759.216 193.373 760.642 195.493 761.149C196.52 761.389 196.64 762.389 196.773 763.309C197.173 765.976 195.813 768.202 194.8 770.362C197.013 772.229 198.947 773.856 200.88 775.482C200.68 778.549 201.48 781.616 200.387 784.696C199.947 785.936 200.387 787.522 200.573 788.922C200.627 789.362 201.213 790.096 201.48 790.069C203.947 789.722 204.747 792.122 206.467 792.989C208.053 796.242 207.533 799.376 205.68 802.309C203.84 805.229 201.973 808.136 199.893 810.896C197.493 814.096 197.093 816.216 199.507 819.229C202.373 822.816 205.613 826.096 210.773 826.016C210.827 825.936 210.88 825.842 210.933 825.762H210.947L210.773 826.016C212.027 826.949 213.16 828.296 214.573 828.736C216.987 829.482 219.667 830.576 221.947 828.162C227.56 827.296 232.307 824.149 237.507 822.189C238.747 821.709 239.667 820.376 240.747 819.429C245.067 819.349 249.4 819.256 253.733 819.176C255.56 819.909 257.4 820.642 259.24 821.376C260.24 821.789 261.267 822.136 262.24 822.616C264.52 823.749 266.773 824.936 269.04 826.096V826.109C269.987 828.362 272.467 827.869 274.107 828.909C278.2 831.496 282.267 831.776 285.933 828.016C287.08 826.842 288.44 826.669 289.947 827.056C289.947 827.056 289.947 827.056 289.96 827.056C291.093 831.629 292.507 836.149 291.987 840.962C291.427 841.896 290.693 842.762 290.347 843.762C289.067 847.362 287.24 850.669 285.24 853.909C281.413 860.082 282.413 866.709 287.907 871.402C289.147 872.456 290.56 873.309 291.853 874.296C293.72 875.722 295.547 877.189 297.4 878.642C297.76 879.229 298.133 879.816 298.507 880.402C298.56 880.536 298.627 880.656 298.733 880.776C298.733 880.762 298.733 880.762 298.733 880.762C299.013 881.602 299.147 882.536 299.6 883.256C302.44 887.776 306.507 891.016 310.88 893.922C311.76 895.749 313.56 896.389 315.2 897.256C315.467 897.482 315.693 897.842 316 897.936C318.933 898.709 321.84 899.736 324.84 900.122C330.16 900.816 335.6 901.562 340.507 898.309C342.667 898.136 345.027 898.482 346.907 897.669C349.773 896.456 352.48 896.029 355.587 896.242C359.653 896.536 363.307 894.669 366.867 892.842C368.013 894.829 369.853 895.816 371.707 894.456C374.6 892.349 377.907 892.456 381.093 891.816C382.867 894.042 383.293 894.229 385.187 893.056C385.307 892.989 385.413 892.922 385.533 892.829C385.533 892.829 385.533 892.829 385.547 892.829C386.773 892.829 388.027 892.922 388.893 891.776C391.453 890.309 394.013 888.829 396.573 887.362C399.267 886.829 401.733 886.056 402.84 883.056C403.093 882.362 404.187 881.909 404.973 881.482C406.72 880.562 408.547 879.776 410.307 878.842C411.067 878.429 412.227 877.882 412.333 877.242C412.92 873.896 416.04 872.456 417.547 869.842C418.173 869.509 419 869.349 419.373 868.842C421.373 866.096 422.987 863.002 425.293 860.536C427.333 858.336 427.307 855.936 427.44 853.402C427.44 853.389 427.44 853.389 427.44 853.389C427.413 853.389 427.4 853.389 427.387 853.389C427.787 853.149 428.173 852.909 428.573 852.682C428.893 852.576 429.213 852.456 429.413 852.162C429.653 851.909 430.027 851.682 430.107 851.376C430.84 848.776 432.16 846.962 435.173 846.696C436.107 846.616 437.56 845.829 437.747 845.096C438.52 842.189 441.547 841.389 442.867 839.096C444.627 837.722 445.693 836.042 446.333 833.829C447.013 831.442 448.373 829.269 449.44 827.002C450.787 826.362 451.36 825.216 451.52 823.802C452.213 821.602 453.027 819.442 453.533 817.216C453.693 816.522 453 815.629 452.693 814.829C453.227 813.922 453.907 813.056 454.253 812.082C454.533 811.309 454.787 810.149 454.413 809.589C452.293 806.416 453.693 803.456 454.68 800.442C456.493 799.429 458.293 799.002 460.333 799.949C462.293 800.856 464.373 801.549 466.613 800.909C468.4 803.336 470.613 804.122 473.4 802.669C476.587 800.962 480.04 800.069 483.533 799.282C484.213 799.122 484.84 798.682 485.493 798.362C487.36 797.776 489.293 797.309 491.093 796.562C496.387 794.376 501.507 791.602 507.533 792.296C511.133 791.082 514.227 792.389 517.213 794.242C518.36 797.722 519.867 801.122 519.36 804.922C517.68 810.989 518.733 816.802 520.92 822.522C522.027 825.469 524.493 826.669 527.293 826.789C530.427 826.909 533.32 827.789 536.307 828.549C540.387 829.589 544.24 828.616 547.707 826.362C548.507 825.842 548.84 824.629 549.387 823.736C551.8 819.002 551.533 813.922 551.293 808.856C551.267 808.202 550.693 807.576 550.373 806.936C550.507 806.629 550.467 806.336 550.28 806.056C550.52 803.162 550.427 800.229 551.48 797.456C552.68 795.949 553.147 793.696 555.333 793.149C558.8 792.296 562.293 791.122 565.933 792.136C570.587 793.442 575.227 794.842 579.867 796.202C581.76 797.949 584.333 797.442 586.52 798.256C586.773 798.496 587.08 798.589 587.427 798.522C589.693 799.202 591.947 799.896 594.213 800.576C595.813 801.202 597.387 801.949 599.04 802.402C599.507 802.536 600.187 801.829 600.773 801.496C602.827 799.469 605.747 799.829 608.173 798.816C610.387 797.896 612.693 797.936 614.96 798.762C614.933 799.029 615.013 799.242 615.24 799.416C615.64 802.576 617.173 805.709 615.147 808.896C614.893 809.282 615.493 810.202 615.68 810.869C615.92 811.722 616.307 812.562 616.36 813.416C616.693 819.122 618.053 824.376 622.667 828.256C622.64 828.562 622.747 828.829 622.973 829.042C623.227 829.442 623.48 829.842 623.747 830.256C624.027 831.749 623.467 833.496 625.053 834.589C625.613 836.149 626.6 837.309 628.12 838.016C628.133 838.002 628.147 837.989 628.16 837.976C628.667 838.162 628.947 838.642 629.373 838.922L629.427 838.962C630.04 839.416 630.64 839.856 631.253 840.309C631.613 841.709 631.773 843.296 633.213 844.029C635.453 845.149 637.48 846.816 640.16 846.869C640.52 848.069 640.533 849.642 641.32 850.376C642.627 851.602 642.88 853.069 643.44 854.589C645.04 858.856 647.12 862.856 651.093 865.496C651.64 867.989 652.72 869.962 655.667 870.056C656.4 870.696 657.147 871.336 657.893 871.976C659.72 875.002 662.787 876.629 665.493 878.656C665.933 878.936 666.36 879.229 666.773 879.522C667.08 879.629 667.387 879.709 667.707 879.762C667.72 879.762 667.72 879.762 667.72 879.762C669.28 882.069 671.307 883.682 674.053 884.522C675.387 884.936 676.507 886.002 677.773 886.682C680.787 888.269 683.507 890.442 686.88 891.336C688.013 891.642 689 891.656 689.787 890.642C690.467 890.389 691.293 889.736 691.773 889.922C694.253 890.936 697.173 890.016 699.467 891.922C700.16 892.496 701.653 892.736 702.453 892.376C704.733 891.362 706.627 892.029 708.68 892.936C709.96 893.496 711.44 893.616 712.827 893.949C713.973 895.242 715.493 894.802 716.92 894.842C718.347 894.869 719.907 894.656 721.187 895.122C723.827 896.082 726.52 896.216 729.253 896.282C730.96 897.869 733.067 898.149 735.28 898.362C740.813 898.882 746.08 897.776 751.387 896.402C753.96 895.736 756.107 894.762 757.853 892.829C758.213 892.416 758.573 892.016 758.933 891.602C760.88 890.722 762.267 889.242 763.44 887.509C767.027 886.016 768.947 882.909 770.907 879.816C772.36 877.522 773.88 875.269 775.373 872.989C775.773 872.669 776.173 872.336 776.573 872.016L776.48 871.896C776.493 871.882 776.507 871.869 776.533 871.842C776.547 871.896 776.56 871.962 776.573 872.016C777 871.696 777.413 871.389 777.827 871.069L777.6 870.829C777.613 870.829 777.613 870.816 777.627 870.816C777.693 870.909 777.76 870.989 777.827 871.069C778.493 870.642 779.16 870.202 779.827 869.762L779.627 869.682C779.64 869.656 779.64 869.629 779.64 869.602C779.747 869.696 779.827 869.762 779.827 869.762C780.947 868.682 782.067 867.589 783.187 866.496C784.2 865.989 784.92 865.242 785.12 864.069C785.36 862.642 785.573 861.216 785.867 859.802C786.48 857.002 786.053 854.456 784.227 852.189C782.4 848.162 780.56 844.136 778.733 840.109C777.693 837.256 777.48 834.296 777.547 831.296C777.733 831.002 777.8 830.696 777.72 830.362C778.133 828.816 778.507 827.282 778.96 825.749C779.56 823.642 781.307 823.016 783.12 824.216C783.413 824.416 783.667 824.682 783.933 824.922C786.813 827.496 789.987 827.562 793.333 825.976C793.853 825.802 794.373 825.656 794.867 825.442C800.653 823.029 805.867 819.456 811.72 817.176C812.293 816.869 812.867 816.576 813.427 816.282C813.613 816.216 813.787 816.136 813.947 816.016C813.947 816.029 813.947 816.029 813.947 816.042C815.733 815.696 817.533 815.336 819.32 814.989C820.48 815.256 821.64 815.642 822.813 815.749C824.947 815.936 827.093 815.949 829.227 816.029C830.227 816.749 831.147 817.642 832.24 818.176C837.28 820.669 842.587 822.496 847.8 824.576C851.147 825.896 854.173 825.709 857.067 823.696C858.88 822.429 860.773 821.469 862.933 820.896C863.92 820.629 864.787 819.856 865.707 819.309C867.867 817.402 870.627 815.989 870.987 812.656V812.642C872.107 811.562 872.227 810.429 871.133 809.269C871.147 809.269 871.147 809.269 871.147 809.269C871.013 807.029 869.387 805.962 867.693 804.949C867.387 804.549 867.08 804.149 866.773 803.749C865.773 800.922 864.387 798.322 862.307 796.122C861.8 791.416 862.893 787.522 867.56 785.269C868.2 784.962 868.68 783.922 868.84 783.149C869.147 781.576 869.107 780.029 868.76 778.362C867.933 774.389 868.053 770.442 871.613 767.509C871.88 767.296 872.013 766.936 872.213 766.642C873.28 766.189 874.107 765.562 873.64 764.229C873.24 763.042 872.613 761.922 872.32 760.709C871.92 759.136 871.907 757.562 872.733 756.016C874.187 753.269 874.2 753.162 871.827 750.989C870.813 750.056 871.067 749.109 871.173 748.069L871.2 748.029C872.253 747.896 873.307 747.789 874.333 747.589C874.587 747.536 874.88 747.122 874.907 746.842C874.933 746.602 874.653 746.122 874.467 746.096C872.24 745.789 871.293 743.536 869.347 742.776C869.067 742.669 869.08 741.802 868.96 741.296C869.493 739.669 870.013 738.042 870.547 736.389C869.213 735.682 867.987 735.042 866.76 734.389C867.427 731.482 866.453 729.082 864.026 727.602C862 726.362 860.8 724.936 860.68 722.522C860.667 722.109 859.68 721.736 859.147 721.336C857.32 720.349 855.68 718.656 853.28 720.282C852.413 720.869 851.613 720.136 851.2 719.216C850.853 718.442 850.52 717.656 850.187 716.869C849.173 716.229 847.293 717.002 847.133 714.989C847.347 714.576 847.573 714.176 847.8 713.762C848.44 711.629 848.16 710.856 846.493 710.749C845.867 710.709 845.2 711.176 844.547 711.416C843.253 712.242 841.96 713.082 840.32 712.402C838.12 712.029 835.853 712.509 833.667 711.549C832.613 711.082 831.187 711.349 830.293 712.496C829.227 712.536 828.16 712.562 827.093 712.589C825.92 711.189 824.853 712.429 823.76 712.709C820.76 711.909 817.893 712.416 815.107 713.602C813.893 713.322 812.707 712.976 811.48 712.762C808.267 712.189 806.947 711.029 806.36 708.042C806.227 707.362 806.067 706.416 806.413 705.949C807.893 703.949 806.586 701.616 807.293 699.642C808.093 697.469 809.507 695.536 810.44 693.402C810.773 692.656 810.707 691.562 810.413 690.789C810.227 690.296 809.333 689.976 808.68 689.776C807.493 689.402 807.573 688.536 807.653 687.616C808.173 687.469 808.72 687.389 809.213 687.176C810 686.829 811.173 686.549 811.413 685.936C811.96 684.496 812.147 682.882 812.2 681.322C812.213 681.109 810.667 680.842 809.84 680.589C809.813 680.256 809.693 679.976 809.467 679.736C810.227 677.736 810.92 675.696 811.787 673.749C812.44 672.269 812.493 671.109 811.24 669.856C810.747 669.362 810.707 668.256 810.733 667.442C810.76 666.589 811.547 665.549 811.267 664.962C810.333 663.042 811.013 661.509 811.787 659.816C812.747 657.696 813.707 655.522 812.12 653.162C811.813 652.696 812.08 651.802 812.187 651.109C812.4 649.682 812.667 648.269 812.92 646.856C813.267 646.536 813.627 646.229 813.973 645.909C816.107 646.149 818.227 646.509 820.36 646.562C821.373 646.576 822.6 646.269 823.373 645.656C825.48 644.016 827.52 642.336 830.093 641.429C830.333 641.349 830.4 640.816 830.547 640.496C831.227 640.069 831.907 639.642 832.587 639.216C834.347 638.802 836.093 638.216 837.88 638.042C840.6 637.776 842.387 636.136 843.213 633.949C844.64 630.229 847.267 628.749 850.92 628.109C852.64 627.816 854.453 627.082 855.84 626.042C858.333 624.176 861 623.416 864.013 623.762C866.693 624.082 869.36 624.549 872.04 624.949C872.733 625.296 873.413 625.656 874.093 626.016C874.853 626.362 875.6 626.549 876.36 626.642C881.32 627.749 886.227 626.909 891.08 625.496C892.747 625.016 894.213 621.976 894.093 620.082C893.987 618.549 892.933 617.362 891.307 617.269C889.68 617.176 888.053 617.282 886.413 617.296V617.309C886.413 617.309 886.413 617.309 886.413 617.296C884.947 616.509 883.48 615.709 882 614.922C881.4 614.269 880.36 614.549 879.773 613.856C879.44 613.762 879.08 613.709 878.733 613.682C877.48 612.656 876.267 611.602 874.973 610.642C874.28 610.136 873.427 609.442 872.653 609.456C868.507 609.522 865.093 607.309 861.373 606.056V606.042C861.36 605.322 861.093 604.469 861.387 603.909C863.013 600.949 863.093 597.709 863.52 594.469C863.787 592.509 863.52 590.936 862.547 589.336C861.373 587.429 860.813 585.349 861.133 583.096C861.533 582.776 861.933 582.469 862.32 582.149C862.333 582.149 862.333 582.149 862.333 582.149C863.853 581.936 865.8 582.602 866.507 580.482C867.027 578.909 868.067 578.509 869.44 579.056C870.96 579.669 871.84 579.176 872.56 577.856C873.16 576.762 873.613 575.256 875.147 575.389C877.72 575.602 878.6 574.509 878.96 572.042C879.187 570.562 880.48 569.216 881.347 567.829C882.013 566.762 883.173 565.789 883.36 564.656C883.653 562.762 884.413 561.322 885.573 559.869C886.2 559.096 886.227 557.842 886.533 556.816C886.533 556.802 886.533 556.802 886.533 556.802C887.627 556.669 888.493 556.296 888.76 555.042C889.013 553.882 889.373 552.736 889.693 551.576C889.627 551.376 889.533 551.229 889.413 551.096C889.52 551.016 889.64 550.936 889.76 550.856V550.842C889.813 551.096 889.786 551.336 889.693 551.576C890.813 550.789 891.933 550.002 893.053 549.216C894.32 548.989 895.08 548.216 895.453 547.016C895.733 546.576 896.053 546.162 896.293 545.696C896.706 544.922 897.08 545.309 897.48 545.696C897.453 546.962 897.507 548.229 897.373 549.482C896.88 554.082 898.48 557.616 902.653 559.776C903.693 560.309 904.573 560.922 904.68 562.069C904.92 564.389 906.707 564.242 908.267 564.522C907.587 565.562 906.827 566.562 906.253 567.656C905.787 568.562 905.027 569.736 905.28 570.522C905.933 572.616 905.707 574.709 905.813 576.802C905.933 578.976 907.187 579.976 909.333 579.882C910.32 581.642 911.88 582.176 913.773 582.029V582.016C914.52 582.002 915.267 581.989 916.013 581.976C917.04 582.442 918.053 582.909 919.067 583.362C921.16 584.749 923.72 585.362 925.413 587.456C925.84 587.976 927.053 588.122 927.853 588.029C930.307 587.709 932.507 585.842 935.2 586.829C937.36 585.362 940.373 585.002 941.453 582.082C944.493 581.949 947.707 582.429 950.107 579.816C952.6 580.829 952.6 580.829 953.48 578.882C956 578.216 958.146 576.549 961.093 576.816C962.947 576.989 964.8 575.482 966.013 573.922C967.027 572.602 967.28 570.949 966.6 569.256C966.413 568.776 966.533 568.176 966.507 567.616C967.72 566.869 967.68 565.642 967.72 564.442C968.36 563.709 969.107 563.042 969.6 562.216C970.2 561.216 970.573 560.069 971.04 558.989C971.387 558.629 971.733 558.282 972.08 557.922C974.08 557.696 974.507 555.909 975.4 554.576C976.84 554.189 978.28 553.816 979.72 553.442C982.147 553.402 984.427 553.096 985.32 550.309C986.827 549.762 988.773 549.616 989.773 548.576C991.293 546.976 992.733 545.589 994.92 545.029C995.36 544.909 996 543.629 995.826 543.349C994.307 540.936 996.507 539.776 997.387 538.176C998.507 537.296 998.453 536.056 998.453 534.816C1000.17 534.856 1001.48 534.256 1002.72 532.909C1005.23 530.176 1005.39 530.296 1009.71 530.696C1010.15 530.736 1010.75 530.389 1011.03 530.029C1011.35 529.629 1011.51 529.029 1011.51 528.509C1011.51 526.069 1011.35 523.629 1014.84 523.389C1015.27 523.362 1015.75 522.349 1016 521.709C1016.44 520.602 1017.12 519.749 1018.27 519.536C1019.75 519.269 1020.4 518.202 1020.95 517.042C1021.59 515.736 1022.09 514.362 1022.67 513.029C1022.61 512.922 1022.55 512.816 1022.48 512.722C1022.51 512.722 1022.53 512.709 1022.56 512.709L1022.67 513.029C1023.71 512.736 1025.24 512.776 1025.68 512.109C1027.24 509.722 1029.91 508.856 1031.88 507.056C1032.97 506.056 1033.87 503.642 1036.19 505.482C1036.37 505.629 1037.17 505.202 1037.56 504.882C1038.8 503.842 1039.99 502.749 1041.2 501.669C1042.79 500.176 1042.85 498.002 1043.03 496.162C1043.17 494.602 1043.65 493.869 1044.89 493.336C1046.07 492.829 1047.25 492.349 1048.41 491.829C1048.72 491.696 1049.24 491.309 1049.2 491.216C1048.36 489.149 1050.31 486.749 1048.63 484.882C1047.07 483.136 1045.45 481.522 1045.03 479.069C1044.95 478.642 1044.32 478.082 1043.88 478.002C1040.69 477.402 1040.31 475.189 1039.87 472.442C1039.53 470.416 1037.84 468.642 1036.87 466.696C1036.15 465.242 1035.12 464.376 1033.48 464.442C1030.65 464.576 1028.64 463.202 1026.99 461.082C1027.03 459.696 1027.05 458.322 1027.08 456.936C1029.43 455.722 1029.47 455.589 1028.09 453.402V453.389C1028.13 453.042 1028.12 452.709 1028.07 452.362C1028.8 451.282 1029.53 450.202 1030.27 449.122C1031.69 448.429 1032.39 447.296 1032.39 445.709C1032.39 444.642 1032.44 443.576 1032.48 442.496C1033.75 441.616 1033.44 440.269 1033.49 439.016C1033.75 433.336 1035.64 431.002 1041.19 429.256C1042.36 428.882 1043.44 428.189 1044.52 427.589C1044.99 427.322 1045.32 426.829 1045.79 426.536C1047.31 425.562 1048.77 424.402 1050.44 423.789C1051.13 423.522 1052.25 424.656 1053.24 424.802C1054.61 425.016 1055.83 424.349 1056.27 422.989C1056.87 421.096 1057.33 419.136 1057.72 417.189C1058.21 414.762 1058.4 414.536 1060.79 414.322C1062.41 414.176 1064.04 414.082 1065.64 413.789C1067.79 413.416 1069.04 411.176 1068.75 408.496C1070.64 408.376 1071.76 407.376 1071.93 405.496C1072.07 403.936 1071.47 402.682 1069.97 401.976ZM1001.25 242.922C1001.21 242.856 1001.19 242.776 1001.15 242.696C1001.21 242.562 1001.28 242.416 1001.4 242.309C1001.28 242.522 1001.24 242.722 1001.25 242.922ZM973.067 237.016C972.72 237.016 972.373 237.042 972.04 237.109C970.267 237.482 968.4 237.656 966.733 238.309C964.227 239.296 961.467 240.002 959.853 242.496C958.947 242.549 958.053 242.656 957.147 242.629C954.347 242.562 954.2 244.589 954.707 246.242C955.813 249.882 959.013 251.402 961.893 253.216C962.173 253.389 962.627 253.442 962.947 253.349C964.48 252.869 966.053 252.442 967.507 251.749C968 251.522 968.533 250.496 968.4 250.016C967.733 247.722 969.28 247.122 970.826 246.562C972.667 245.882 974.56 245.322 976.427 244.709C977.053 244.056 978.067 244.282 978.733 243.736C979.067 243.749 979.4 243.722 979.72 243.669C981.627 243.522 983.707 244.282 985.333 242.656H985.347L985.773 242.669L986.2 242.629C986.627 243.309 987.04 243.376 987.44 242.616C991.027 243.616 994.627 244.589 998.4 243.642C999.133 243.642 999.853 243.656 1000.59 243.669C1000.93 243.709 1001.28 243.736 1001.63 243.776C1002 244.109 1002.37 244.442 1002.75 244.789C1005.32 245.989 1007.89 247.216 1010.51 248.349C1010.89 248.522 1011.52 248.269 1012 248.122C1014.21 247.389 1014.19 247.389 1015.32 249.002C1015.69 249.549 1016.25 250.469 1016.61 250.416C1017.61 250.269 1018.65 249.842 1019.45 249.242C1019.88 248.909 1019.81 247.962 1019.99 247.309C1020.12 246.816 1020.15 246.242 1020.44 245.869C1021.04 245.069 1020.79 244.522 1020.07 244.122C1019.29 243.696 1018.73 244.069 1018.32 244.802C1018.01 245.336 1018.2 246.509 1017.05 246.069C1016.68 245.922 1016.24 245.229 1016.27 244.802C1016.51 240.016 1014.64 236.842 1009.69 235.922C1009.51 235.896 1009.31 235.882 1009.17 235.776C1005.92 233.309 1003.17 234.336 1000.65 237.002C1000.09 234.482 997.933 233.336 995.933 233.162C993.093 232.922 990.12 233.416 987.307 234.029C983.04 234.962 978.826 236.042 974.427 236.176C973.96 236.202 973.52 236.722 973.067 237.016Z" fill="#040606"/>
</svg>
