<svg width="953" height="687" viewBox="0 0 953 687" fill="none" xmlns="http://www.w3.org/2000/svg">
<path d="M463.276 667.751C456.206 657.161 450.046 648.051 449.596 647.501C449.136 646.951 446.856 643.581 444.526 640.001C425.426 610.731 404.876 581.231 400.716 577.111C392.586 569.081 377.336 561.911 364.386 560.051C360.536 559.491 341.826 559.031 322.806 559.021C303.786 559.011 287.926 558.701 287.556 558.341C286.986 557.761 293.236 545.181 304.376 524.501C307.686 518.351 317.806 498.921 330.166 475.001C333.996 467.581 340.976 454.081 345.676 445.001C356.556 423.971 363.116 410.821 365.886 404.501C369.386 396.491 374.846 391.591 383.886 388.301C386.606 387.311 405.516 387.021 468.886 387.001C556.226 386.961 558.466 386.851 568.416 381.881C570.846 380.671 576.546 376.601 581.086 372.841C585.626 369.081 589.676 366.001 590.096 366.001C591.686 366.001 592.066 371.291 590.786 375.791C589.976 378.651 589.496 385.031 589.576 392.041C589.706 404.081 591.596 412.461 595.736 419.341C596.786 421.081 602.016 431.051 607.356 441.501C612.706 451.951 617.426 460.951 617.846 461.501C618.266 462.051 625.136 475.331 633.116 491.001C641.096 506.671 651.966 527.891 657.256 538.141C662.556 548.391 666.886 557.251 666.886 557.831C666.886 558.531 654.316 559.001 628.636 559.251C584.756 559.681 583.676 559.831 567.446 567.641C556.186 573.071 552.046 577.871 528.826 612.501C523.666 620.201 519.176 626.721 518.866 627.001C518.546 627.281 515.126 632.221 511.256 638.001C488.706 671.681 477.976 687.001 476.926 687.001C476.496 687.001 470.356 678.341 463.276 667.751ZM478.416 528.501C482.836 521.901 489.476 512.081 493.166 506.681C496.866 501.291 499.886 496.751 499.886 496.601C499.886 496.451 512.266 477.731 527.386 455.001C542.506 432.271 554.886 412.771 554.886 411.671C554.886 410.561 554.146 408.831 553.236 407.831C551.676 406.111 548.996 406.001 509.766 406.001C468.916 406.001 467.916 406.051 466.056 408.051C465.006 409.181 463.866 412.171 463.516 414.691C463.166 417.211 462.886 446.131 462.886 478.941C462.886 525.151 463.166 538.881 464.126 539.841C464.816 540.531 466.496 540.951 467.876 540.791C469.846 540.561 472.116 537.911 478.416 528.501ZM278.886 477.601C276.966 476.351 271.786 473.391 267.386 471.021C262.986 468.651 257.136 465.481 254.386 463.971C251.636 462.471 245.336 459.101 240.386 456.491C235.436 453.881 230.936 451.411 230.386 451.011C229.836 450.601 223.986 447.451 217.386 444.001C210.786 440.551 204.936 437.401 204.386 436.991C203.836 436.581 198.436 433.651 192.386 430.491C186.336 427.321 180.936 424.401 180.386 423.991C179.836 423.581 174.886 420.881 169.386 417.981C163.886 415.081 158.486 412.151 157.386 411.471C156.286 410.801 152.686 408.771 149.386 406.961C142.976 403.451 129.576 396.061 121.386 391.501C118.636 389.981 113.456 387.041 109.886 384.991C106.316 382.941 99.116 379.601 93.886 377.571C88.656 375.541 83.486 373.491 82.386 373.021C81.286 372.541 78.136 371.341 75.386 370.351C72.576 369.331 68.626 366.781 66.366 364.521C62.546 360.701 62.276 360.021 60.996 351.001C60.246 345.771 58.996 337.451 58.196 332.501C57.406 327.551 56.346 320.351 55.846 316.501C55.346 312.651 54.546 306.871 54.066 303.661C53.036 296.751 53.566 296.291 60.626 297.851C63.246 298.431 67.406 299.181 69.886 299.521C72.366 299.851 82.936 301.741 93.386 303.711C112.096 307.231 118.896 309.531 129.386 315.861C131.036 316.861 136.266 319.771 141.006 322.331C154.916 329.841 159.316 332.271 166.556 336.421C173.886 340.641 176.096 341.871 185.386 346.961C188.686 348.771 193.866 351.731 196.886 353.531C205.286 358.541 211.756 361.461 212.606 360.621C213.436 359.791 210.756 357.161 184.936 333.491C175.336 324.701 162.736 312.971 156.936 307.441C135.076 286.591 129.486 281.991 122.216 278.911C119.556 277.791 116.486 276.491 115.386 276.021C114.286 275.551 112.486 274.951 111.386 274.681C110.286 274.411 104.206 272.331 97.886 270.051C91.566 267.781 83.006 264.811 78.886 263.471C53.936 255.321 54.776 255.681 50.906 251.281C47.056 246.911 46.056 243.581 42.836 224.501C42.186 220.651 41.256 216.201 40.766 214.601C40.286 213.011 39.886 210.361 39.886 208.721C39.886 207.081 39.456 204.101 38.936 202.121C38.406 200.131 37.236 194.231 36.326 189.001C35.416 183.771 34.046 177.281 33.276 174.571C31.716 169.031 31.456 164.001 32.736 164.001C33.726 164.001 39.476 165.791 42.386 167.001C43.486 167.451 47.986 169.041 52.386 170.521C56.786 172.001 61.286 173.581 62.386 174.031C63.486 174.481 69.336 176.451 75.386 178.411C88.076 182.521 129.326 196.581 130.556 197.221C131.016 197.451 133.406 198.261 135.886 199.001C138.366 199.751 140.836 200.681 141.386 201.061C141.936 201.451 143.946 202.101 145.856 202.511C147.756 202.921 150.006 203.611 150.856 204.051C151.696 204.491 154.346 205.571 156.726 206.451C159.116 207.341 163.396 209.551 166.226 211.371C172.136 215.171 189.736 230.841 194.796 236.821C196.676 239.041 199.096 241.081 200.176 241.371C201.976 241.841 202.086 241.501 201.536 237.461C201.206 235.031 200.496 232.251 199.966 231.271C199.436 230.301 198.256 226.801 197.336 223.501C193.856 210.941 190.406 204.681 182.236 196.051C176.086 189.561 162.866 180.001 160.046 180.001C159.596 180.001 153.746 177.301 147.046 174.001C140.346 170.701 134.686 168.001 134.456 168.001C133.916 168.001 99.126 151.461 71.886 138.261C63.366 134.121 53.006 129.181 48.886 127.281C31.746 119.371 28.846 117.801 25.956 114.921C21.016 109.981 20.126 107.091 14.956 79.5014C12.366 65.7114 9.52597 52.2214 8.84597 50.5014C8.40597 49.4014 7.78597 46.9314 7.46597 45.0014C6.83597 41.2014 4.33597 28.9114 2.89597 22.5014C-0.634031 6.80144 -0.47403 8.00144 0.93597 8.00144C1.51597 8.00144 8.15597 10.9614 15.686 14.5714C23.226 18.1814 31.186 21.9614 33.386 22.9714C35.586 23.9814 43.566 27.7814 51.126 31.4014C58.686 35.0314 65.086 38.0014 65.346 38.0014C65.616 38.0014 70.226 40.0914 75.606 42.6414C80.986 45.1914 90.566 49.7314 96.886 52.7414C103.206 55.7414 110.866 59.3314 113.886 60.7214C116.906 62.1114 124.956 65.8914 131.766 69.1214C138.576 72.3614 144.326 75.0014 144.546 75.0014C144.756 75.0014 149.086 76.9714 154.166 79.3814C185.426 94.2214 208.976 105.141 223.386 111.471C239.736 118.651 244.106 121.321 252.756 129.451C261.206 137.401 270.886 152.171 270.886 157.131C270.886 158.091 271.286 159.131 271.776 159.431C272.266 159.731 272.896 161.451 273.186 163.241C273.466 165.031 274.606 170.101 275.706 174.501C277.876 183.131 282.546 202.321 283.856 208.001C284.926 212.601 291.686 239.521 292.896 244.001C293.866 247.571 304.656 291.851 312.026 322.501C314.276 331.851 318.046 347.381 320.406 357.001C325.536 377.961 326.406 385.381 324.916 395.711C323.516 405.361 323.056 406.571 314.796 422.001C302.286 445.361 294.876 459.481 289.726 469.751C286.896 475.391 284.096 479.971 283.486 479.941C282.886 479.911 280.806 478.861 278.886 477.601ZM661.576 463.751C649.936 440.951 639.236 420.321 635.556 413.531C630.626 404.461 629.006 399.321 628.306 390.501C627.846 384.681 628.126 380.461 629.346 375.001C630.276 370.881 631.686 364.351 632.486 360.501C633.296 356.651 634.386 352.721 634.916 351.761C635.456 350.811 635.886 349.231 635.886 348.261C635.886 347.291 637.706 339.301 639.926 330.501C642.136 321.701 644.566 311.581 645.306 308.001C646.556 301.981 649.536 289.651 651.896 280.751C654.196 272.061 654.916 269.121 656.496 262.001C657.416 257.881 658.806 252.021 659.606 249.001C662.446 238.181 664.856 228.151 670.326 204.501C673.386 191.301 676.306 178.921 676.826 177.001C677.356 175.081 678.726 169.671 679.876 165.001C683.596 149.931 687.756 142.421 698.556 131.351C707.446 122.231 712.536 118.871 728.336 111.721C735.516 108.481 743.416 104.901 745.886 103.781C754.416 99.9214 775.356 90.1414 790.386 83.0014C796.436 80.1314 806.316 75.5414 812.336 72.8014C818.356 70.0614 826.726 66.0614 830.946 63.9114C835.166 61.7614 838.866 60.0014 839.166 60.0014C839.466 60.0014 845.486 57.2614 852.546 53.9214C859.606 50.5714 867.416 46.9114 869.886 45.7914C872.356 44.6714 881.806 40.1514 890.886 35.7614C899.966 31.3714 910.086 26.5314 913.386 25.0114C916.686 23.4814 924.786 19.6614 931.386 16.5014C944.316 10.3214 951.726 7.00144 952.596 7.00144C952.896 7.00144 952.796 8.91144 952.386 11.2514C950.736 20.4714 949.936 24.6814 949.036 29.0014C948.516 31.4814 947.146 38.4514 945.996 44.5014C944.846 50.5514 943.016 59.5514 941.936 64.5014C940.856 69.4514 939.036 78.6814 937.886 85.0014C934.116 105.801 932.976 108.851 926.876 114.281C922.086 118.551 920.946 119.211 908.386 125.041C902.226 127.901 890.396 133.571 857.386 149.481C848.966 153.541 844.446 155.671 822.136 166.081C817.326 168.331 810.236 171.671 806.386 173.511C802.536 175.341 796.376 178.191 792.696 179.831C783.496 183.941 777.376 188.221 770.736 195.201C762.606 203.751 757.426 214.611 752.276 233.921C749.826 243.081 751.646 242.541 764.116 230.381C783.136 211.841 786.846 209.371 804.456 203.501C810.466 201.501 816.286 199.481 817.386 199.031C822.106 197.061 831.256 193.771 843.386 189.651C864.786 182.381 883.256 175.941 885.386 175.011C886.486 174.531 889.186 173.571 891.386 172.891C893.586 172.201 900.966 169.671 907.776 167.261C914.596 164.861 920.526 163.251 920.966 163.691C921.406 164.141 921.376 166.521 920.906 169.001C920.426 171.481 918.626 181.381 916.896 191.001C915.166 200.621 912.856 213.001 911.756 218.501C910.656 224.001 909.326 231.201 908.806 234.501C907.496 242.781 906.136 246.551 903.176 250.061C899.756 254.131 897.136 255.361 878.466 261.631C869.616 264.601 861.486 267.441 860.386 267.941C859.286 268.451 852.766 270.741 845.886 273.051C824.446 280.231 822.526 281.551 795.886 307.411C789.006 314.081 773.806 328.481 762.106 339.411C750.396 350.331 741.056 359.501 741.346 359.791C741.996 360.441 748.806 357.471 755.346 353.681C760.096 350.921 765.676 347.871 779.886 340.231C783.466 338.311 794.566 332.081 804.576 326.381C831.146 311.251 838.596 307.621 845.886 306.241C876.216 300.531 895.836 297.041 897.776 297.021C899.476 297.001 898.916 306.051 895.896 327.501C894.816 335.201 893.416 345.481 892.796 350.351C891.836 357.791 891.186 359.721 888.746 362.501C885.926 365.721 874.526 372.001 871.506 372.001C870.676 372.001 869.746 372.421 869.436 372.921C869.116 373.431 867.416 374.161 865.656 374.551C863.896 374.941 861.766 375.591 860.916 376.011C860.076 376.431 856.236 378.261 852.386 380.081C848.536 381.911 839.986 386.471 833.386 390.241C826.786 394.001 820.716 397.441 819.886 397.891C819.056 398.331 812.306 402.081 804.886 406.211C797.466 410.341 789.136 414.971 786.386 416.501C777.196 421.601 762.466 429.641 754.386 433.971C749.986 436.321 745.936 438.581 745.386 438.971C744.836 439.371 739.436 442.301 733.386 445.501C709.386 458.171 697.276 464.701 689.386 469.191C681.886 473.471 671.036 479.001 670.156 479.001C669.726 479.001 665.866 472.141 661.576 463.751ZM357.796 347.721C355.156 345.691 354.176 343.001 350.946 328.961C347.246 312.851 346.046 307.951 344.316 302.001C343.596 299.521 341.826 292.101 340.366 285.501C338.916 278.901 337.346 272.601 336.886 271.501C336.426 270.401 335.786 268.151 335.466 266.501C334.646 262.261 330.336 243.641 328.516 236.501C327.006 230.551 321.476 207.821 313.796 176.001C311.616 166.921 309.406 158.151 308.906 156.501C308.396 154.851 307.676 151.131 307.306 148.221C306.746 143.921 306.946 142.591 308.406 140.971C310.106 139.101 311.576 139.001 336.556 139.001C361.436 139.001 363.166 138.881 367.486 136.851C372.796 134.351 376.446 129.441 377.796 122.971C378.316 120.511 379.936 114.001 381.396 108.501C382.866 103.001 384.446 96.9214 384.916 95.0014C385.386 93.0814 386.976 87.0014 388.446 81.5014C391.626 69.7114 392.686 57.6714 390.756 55.3514C390.046 54.4914 388.446 53.4014 387.196 52.9314C385.946 52.4514 368.096 52.0214 347.526 51.9614C304.616 51.8514 305.206 51.9614 306.226 44.5114C306.546 42.2014 307.446 38.3214 308.236 35.9014C309.026 33.4814 310.446 28.8014 311.396 25.5014C314.906 13.3314 317.176 7.44144 319.256 5.12144C324.046 -0.228563 317.726 0.00144184 458.906 0.00144184C577.996 0.00144184 590.276 0.151447 593.186 1.63145C594.946 2.52145 597.076 3.98145 597.916 4.88145C598.766 5.77145 610.336 23.9314 623.646 45.2314C645.806 80.7214 647.926 84.4914 648.856 90.2314C650.156 98.2814 650.206 123.691 648.906 124.481C648.376 124.821 645.796 123.161 643.176 120.791C633.866 112.401 629.256 108.191 619.386 99.0714C613.886 93.9814 607.866 89.1914 606.016 88.4114C603.496 87.3614 597.616 87.0014 582.696 87.0014C558.466 87.0014 556.936 87.5014 556.906 95.4414C556.886 99.6214 561.086 120.831 563.246 127.451C564.016 129.821 566.046 132.621 568.296 134.441C572.006 137.451 572.246 137.501 587.226 138.161C595.566 138.531 611.866 138.871 623.446 138.921C649.076 139.021 648.486 138.781 647.496 148.601C647.116 152.391 646.406 156.851 645.916 158.501C644.746 162.441 643.356 167.921 641.366 176.501C639.816 183.181 638.816 187.251 636.816 195.001C636.326 196.921 634.286 205.481 632.286 214.001C630.286 222.521 627.756 232.651 626.666 236.501C625.586 240.351 624.476 244.621 624.206 246.001C622.216 256.381 617.266 275.171 615.726 278.261C611.986 285.701 603.546 292.451 594.216 295.451C589.766 296.881 584.766 297.071 558.136 296.801L527.226 296.501L523.446 293.621C516.646 288.421 516.886 291.251 516.856 217.281C516.816 146.371 516.866 147.001 512.176 147.001C509.676 147.001 509.056 147.741 498.356 163.501C493.506 170.651 488.336 178.081 486.866 180.001C485.396 181.921 479.516 190.251 473.796 198.501C468.076 206.751 462.846 214.171 462.156 215.001C461.476 215.831 457.786 221.001 453.966 226.501C450.136 232.001 443.506 241.451 439.226 247.501C434.956 253.551 428.616 262.551 425.136 267.501C385.446 323.971 372.566 341.781 368.916 345.251C364.766 349.191 360.846 350.061 357.796 347.721Z" fill="#FCFCFE"/>
</svg>
